<svg width="121" height="135" viewBox="0 0 121 135" fill="none" xmlns="http://www.w3.org/2000/svg">
<ellipse cx="60.5" cy="67.5" rx="60.5" ry="67.5" fill="white"/>
<path fill-rule="evenodd" clip-rule="evenodd" d="M70.3414 91.7159C69.8217 91.8409 68.9287 92.0548 68.357 92.1914C67.1144 92.4883 66.2081 92.8922 65.391 93.5135C64.2663 94.3688 63.2331 95.9327 62.856 97.3512C62.6773 98.023 62.6595 98.877 62.7195 103.896L62.7519 106.599L61.8218 106.821C61.3103 106.943 60.8813 107.053 60.8685 107.065C60.8406 107.092 62.048 112.345 62.0905 112.381C62.1269 112.412 65.5623 111.617 65.6116 111.566C65.6309 111.547 65.5597 111.156 65.4536 110.698C65.3474 110.239 65.2768 109.849 65.2968 109.83C65.3168 109.812 67.1191 109.385 69.302 108.882C71.4849 108.379 73.321 107.95 73.3824 107.928C73.4547 107.903 73.5661 108.208 73.6988 108.792C73.8289 109.365 73.9433 109.68 74.0125 109.655C74.0724 109.633 74.8442 109.452 75.7278 109.253C76.6113 109.054 77.3632 108.866 77.3987 108.836C77.4634 108.78 76.3175 103.65 76.2181 103.55C76.1891 103.521 75.7913 103.585 75.3344 103.693C74.8773 103.802 74.4764 103.859 74.4435 103.822C74.4106 103.784 73.751 100.99 72.9778 97.612C71.8686 92.7666 71.5419 91.4728 71.4292 91.4798C71.3507 91.4847 70.8612 91.5909 70.3414 91.7159ZM66.6228 97.6217C66.9351 96.9533 67.5168 96.3607 68.1525 96.0637C68.4209 95.9382 68.6814 95.8489 68.7315 95.8651C68.8091 95.8902 70.8834 104.664 70.8255 104.722C70.8142 104.733 69.8229 104.971 68.6226 105.25L66.4404 105.757L66.3734 103.19C66.3366 101.778 66.3213 100.069 66.3395 99.3904C66.3689 98.2948 66.4005 98.0977 66.6228 97.6217Z" fill="#303A30"/>
<path fill-rule="evenodd" clip-rule="evenodd" d="M80.679 84.8714C79.2025 86.1124 78.7423 86.7136 78.375 87.8804C78.1889 88.4717 78.1376 88.8347 78.1381 89.5552C78.1393 91.2363 78.2181 91.4417 81.279 97.7378C82.7986 100.864 84.065 103.421 84.0933 103.421C84.1732 103.421 86.8748 101.151 86.9069 101.057C86.9226 101.011 86.5693 100.239 86.1217 99.3416C85.6742 98.4444 85.3211 97.698 85.3372 97.6831C85.3533 97.6681 86.339 96.8434 87.5276 95.8504L89.6889 94.0448L91.0033 95.0579C91.7263 95.615 92.3931 96.1237 92.4849 96.1883C92.6308 96.291 92.8246 96.1617 94.0175 95.1663C94.7685 94.5396 95.3951 93.9915 95.4099 93.9484C95.4329 93.8811 82.111 83.7864 82.0035 83.7896C81.982 83.7903 81.386 84.2771 80.679 84.8714ZM81.7681 89.9836C81.7059 89.5679 81.8498 88.7741 82.0258 88.5611C82.0959 88.4764 82.5277 88.7473 83.6961 89.6089C84.5628 90.2479 85.5832 90.998 85.9635 91.2756C86.344 91.5531 86.6204 91.8108 86.5778 91.8483C85.815 92.5186 83.6954 94.2357 83.6666 94.2067C83.4914 94.0308 81.8159 90.3039 81.7681 89.9836Z" fill="#303A30"/>
<path fill-rule="evenodd" clip-rule="evenodd" d="M49.4382 92.0906C48.3113 92.3953 47.4846 92.9253 46.5206 93.9613C45.9213 94.6055 45.609 95.1349 42.8424 100.198C41.1795 103.241 39.8069 105.759 39.7922 105.795C39.7775 105.83 40.5216 106.06 41.4459 106.306C42.3702 106.551 43.1902 106.77 43.2682 106.791C43.369 106.818 43.6648 106.354 44.2923 105.184L45.1747 103.539L46.3712 103.859C47.0293 104.034 48.2481 104.363 49.0797 104.588L50.5917 104.998V106.88V108.762L52.3257 109.228C53.2794 109.484 54.074 109.679 54.0916 109.662C54.1604 109.593 54.6012 92.8496 54.5358 92.7927C54.4974 92.7594 53.7822 92.555 52.9465 92.3386C51.274 91.9054 50.3615 91.841 49.4382 92.0906ZM49.2538 96.346C49.4105 96.155 49.7544 95.8981 50.018 95.775C50.8726 95.3756 50.828 95.2822 50.8274 97.4698C50.8271 98.5262 50.8 99.7983 50.7671 100.297L50.7073 101.203L48.9013 100.714C47.9079 100.445 47.1039 100.182 47.1143 100.13C47.1587 99.9078 48.9936 96.6628 49.2538 96.346Z" fill="#303A30"/>
<path d="M34.2437 83.3128C32.225 83.7218 30.6574 84.5778 29.2993 86.0127C27.7057 87.6965 26.8649 89.6775 26.7579 92.0001C26.6579 94.1718 27.1829 95.5378 28.7094 97.0775C29.4604 97.835 29.7493 98.0556 30.4166 98.3811C31.6184 98.9674 32.2294 99.0999 33.724 99.0983C34.6363 99.0973 35.1747 99.0497 35.6139 98.9314C36.4251 98.7128 37.1274 98.4647 37.1196 98.3994C37.1161 98.3707 36.7836 97.6215 36.3809 96.7347C35.8668 95.603 35.6082 95.1329 35.5131 95.1578C35.4386 95.1771 35.1438 95.2562 34.858 95.3334C34.0455 95.5529 32.7683 95.4618 32.1451 95.1401C31.5048 94.8096 30.927 94.2093 30.6217 93.5574C29.9749 92.1768 30.6236 89.8629 32.0634 88.4151C33.3958 87.0752 35.7038 86.4036 36.9681 86.9879C37.8836 87.411 38.6139 88.2112 38.8342 89.0324C38.9805 89.5777 38.9489 90.8743 38.775 91.4589C38.6917 91.7393 38.6586 92.0034 38.7015 92.0458C38.7444 92.0882 39.4875 92.4401 40.3528 92.8277L41.9262 93.5326L42.0282 93.3078C42.0843 93.1842 42.2249 92.731 42.3406 92.3007C42.6196 91.2629 42.6419 89.0984 42.3833 88.1513C41.7362 85.7818 39.8546 83.9055 37.526 83.3078C36.6278 83.0772 35.3974 83.0791 34.2437 83.3128Z" fill="#303A30"/>
<path d="M42.5348 28.4704L42.5594 32.3353L52.9777 32.3594C58.7078 32.3727 63.3935 32.4153 63.3905 32.4542C63.3873 32.4931 61.138 35.8113 58.3919 39.828C55.6457 43.8447 53.4327 47.1438 53.4742 47.1595C53.5157 47.1752 54.5938 46.9915 55.8699 46.7514C58.4547 46.2649 59.9513 46.1301 61.6005 46.2348C64.2332 46.4021 66.1385 46.9273 68.4988 48.1365C73.2351 50.5629 76.4982 54.8915 77.6419 60.265C77.8734 61.3529 77.8948 61.6356 77.8979 63.634C77.9008 65.5457 77.8741 65.9492 77.683 66.8966C76.1621 74.4339 70.3715 79.9402 62.8543 80.9977C61.2481 81.2236 58.6678 81.1393 57.1054 80.8098C54.3417 80.227 51.6381 78.9379 49.4801 77.174C48.5534 76.4164 47.0984 74.8522 46.3625 73.8222C45.5588 72.6972 44.4502 70.4969 43.9989 69.1307C43.7908 68.5007 43.462 67.0662 43.1738 65.5313C42.9102 64.1277 42.6804 62.965 42.663 62.9475C42.6455 62.9301 41.576 64.4645 40.2861 66.3574C38.9963 68.2502 37.7185 70.1196 37.4467 70.5116L36.9524 71.2243L37.4166 72.4448C38.3424 74.8794 39.779 77.3978 41.3741 79.3828C42.8833 81.261 45.3608 83.4388 47.4958 84.7639C56.3224 90.2427 67.5333 89.6367 75.775 83.2352C76.8766 82.3795 78.8505 80.4279 79.7718 79.2833C81.3581 77.3127 82.9356 74.5424 83.7607 72.2781C86.1041 65.848 85.7323 58.837 82.7237 52.7269C81.4467 50.1333 79.9923 48.0895 77.9973 46.085C77.4247 45.5097 76.5948 44.7487 76.153 44.3939C74.0604 42.7132 71.3406 41.1667 69.0399 40.3497C68.3789 40.1149 67.838 39.8875 67.8378 39.8443C67.8375 39.8011 70.1548 36.378 72.9874 32.2374C75.8199 28.0968 78.1374 24.6858 78.1374 24.6573C78.1374 24.6288 70.1213 24.6055 60.3238 24.6055H42.5101L42.5348 28.4704Z" fill="#303A30"/>
<path fill-rule="evenodd" clip-rule="evenodd" d="M58.786 49.8359C57.6734 50.1284 56.8372 50.6237 55.9735 51.5017L55.213 52.2747L54.3359 51.3389C53.2014 50.1287 53.1281 50.1202 52.2172 51.0908C49.3633 54.1316 48.6147 56.8883 49.95 59.4388C50.321 60.1473 51.3725 61.3403 52.1518 61.9368L52.6233 62.2977V63.3068C52.6233 64.4184 52.718 64.6299 53.216 64.6299C53.6399 64.6299 53.7573 64.3301 53.7573 63.2475V62.2867L54.3229 61.8407C54.6341 61.5953 55.151 61.1004 55.4717 60.741L56.0548 60.0874L56.4822 60.465C57.0284 60.9475 58.0618 61.4549 58.9074 61.6557C59.2712 61.7421 59.622 61.8265 59.687 61.8431C59.7741 61.8654 59.8051 62.2057 59.8051 63.1379C59.8051 64.503 59.8463 64.6299 60.2897 64.6299C60.7838 64.6299 60.8445 64.4578 60.8445 63.0582V61.7845H61.1181C61.4744 61.7845 62.5673 61.4444 63.1315 61.158C63.3759 61.0339 63.8042 60.7457 64.0831 60.5176L64.5905 60.1028L65.2275 60.8004C65.5779 61.1841 66.0957 61.6792 66.3784 61.9008L66.8923 62.3037V63.2559C66.8923 64.3503 67.0077 64.6299 67.4593 64.6299C67.9125 64.6299 68.0263 64.3512 68.0263 63.2416V62.2749L68.4751 61.9441C69.1116 61.475 70.0203 60.5 70.4655 59.8087C72.0825 57.2978 71.4097 54.2764 68.5699 51.2951C67.4466 50.1157 67.468 50.115 66.2845 51.3642C65.7838 51.8929 65.3621 52.309 65.3476 52.289C63.7734 50.131 61.2506 49.1877 58.786 49.8359ZM56.7903 52.2036C57.4141 51.5677 58.604 50.9288 59.4271 50.788C60.0667 50.6784 61.1178 50.7405 61.7231 50.9236C64.7629 51.843 66.1856 55.2936 64.6923 58.1252C64.304 58.8616 63.4141 59.7557 62.6872 60.1397C62.1728 60.4116 61.8953 60.5074 61.1044 60.6861L60.8445 60.7448V58.1529C60.8445 55.3434 60.8228 55.2165 60.3413 55.2165C59.8065 55.2165 59.8051 55.2239 59.8051 58.034C59.8051 59.4534 59.7812 60.6388 59.7519 60.6682C59.6477 60.7727 58.5379 60.4471 57.9785 60.1479C56.3595 59.2818 55.3715 57.6205 55.3662 55.7554C55.3621 54.3358 55.8208 53.1918 56.7903 52.2036ZM51.5375 53.6753C51.8136 53.258 52.2807 52.6499 52.5756 52.3238C52.8704 51.9978 53.1495 51.731 53.1958 51.731C53.2421 51.731 53.5808 52.0831 53.9484 52.5135C54.681 53.3711 54.6523 53.2442 54.3831 54.4341C54.0745 55.799 54.2761 57.3027 54.9407 58.5943L55.2757 59.2453L54.8823 59.7571C54.6659 60.0385 54.3349 60.4046 54.1467 60.5705L53.8045 60.8722L53.7573 58.2223C53.7313 56.7647 53.6738 55.5159 53.6295 55.447C53.4347 55.1441 52.9031 55.156 52.6956 55.4679C52.6574 55.5253 52.6256 56.7566 52.6247 58.2041C52.624 59.7132 52.5868 60.8361 52.5377 60.8361C52.3491 60.8361 51.2113 59.4739 50.8946 58.869C50.0485 57.2529 50.2505 55.6205 51.5375 53.6753ZM66.0377 53.62C65.9412 53.4391 66.1856 53.0598 66.9338 52.2289C67.1805 51.9551 67.4122 51.731 67.4489 51.731C67.7123 51.731 69.1526 53.6282 69.6353 54.6108C70.3122 55.9891 70.4285 57.1803 69.9985 58.3337C69.7684 58.9509 69.0306 60.0107 68.4892 60.5018L68.0735 60.8788L68.0263 58.1932C67.9791 55.5116 67.9787 55.5075 67.7559 55.3266C67.4772 55.1003 67.4465 55.101 67.1413 55.342L66.8923 55.5385V58.1874C66.8923 59.6768 66.8554 60.8361 66.808 60.8361C66.711 60.8361 65.7276 59.7888 65.5061 59.4497C65.3659 59.2348 65.376 59.1871 65.6907 58.5828C66.3628 57.2919 66.5613 55.9512 66.2839 54.5769C66.1954 54.1387 66.0847 53.7081 66.0377 53.62Z" fill="#303A30"/>
<path d="M45.2715 65.9767C45.1109 66.1378 45.1309 66.5807 45.3066 66.7571C45.4404 66.8913 46.9408 66.9061 60.4114 66.9061C74.7808 66.9061 75.3739 66.8993 75.5241 66.7327C75.7212 66.5141 75.7246 66.2051 75.5321 66.0118C75.3982 65.8776 73.894 65.8628 60.3842 65.8628C48.844 65.8628 45.3587 65.8891 45.2715 65.9767Z" fill="#303A30"/>
<path d="M45.5035 68.4074C45.378 68.5467 45.3471 68.7863 45.3471 69.6223C45.3471 70.7216 45.408 70.913 45.7943 71.0282C45.9483 71.0741 46.0698 71.0265 46.2432 70.8524C46.4666 70.6282 46.481 70.5542 46.481 69.6346C46.481 68.9019 46.444 68.6025 46.3339 68.4448C46.1523 68.1844 45.722 68.1651 45.5035 68.4074Z" fill="#303A30"/>
<path d="M47.5745 68.383C47.4465 68.5115 47.426 68.9036 47.426 71.2283C47.426 73.7982 47.4349 73.9335 47.615 74.1143C47.8425 74.3426 47.9779 74.3515 48.2554 74.1563C48.4643 74.0095 48.4655 73.9938 48.4655 71.2351C48.4655 69.2044 48.4351 68.4311 48.3521 68.3478C48.1915 68.1866 47.7502 68.2066 47.5745 68.383Z" fill="#303A30"/>
<path d="M49.6017 68.4195C49.5363 68.542 49.5112 69.8841 49.5274 72.3756L49.5522 76.1463L49.8012 76.2864C50.0245 76.4123 50.0756 76.41 50.2973 76.2642L50.5444 76.1017V72.2816C50.5444 69.437 50.5155 68.4326 50.431 68.3478C50.2453 68.1614 49.7148 68.2072 49.6017 68.4195Z" fill="#303A30"/>
<path d="M51.6973 68.3478C51.5339 68.5118 51.5339 77.5355 51.6973 77.6994C51.8578 77.8606 52.2991 77.8406 52.4749 77.6643C52.6057 77.533 52.6233 76.9835 52.6233 73.058C52.6233 70.167 52.5889 68.5364 52.5255 68.4174C52.4134 68.2071 51.8819 68.1624 51.6973 68.3478Z" fill="#303A30"/>
<path d="M53.7762 68.3478C53.6126 68.5119 53.6126 78.5786 53.7762 78.7427C53.9367 78.9039 54.378 78.8839 54.5538 78.7075C54.6851 78.5758 54.7023 77.9763 54.7023 73.5452C54.7023 69.1142 54.6851 68.5147 54.5538 68.383C54.378 68.2066 53.9367 68.1866 53.7762 68.3478Z" fill="#303A30"/>
<path d="M55.7944 68.4448C55.6655 68.6294 55.6472 69.3055 55.6472 73.8856C55.6472 79.033 55.6503 79.1194 55.8431 79.3654C56.0768 79.6637 56.3344 79.6843 56.5922 79.4256C56.7767 79.2404 56.7812 79.1095 56.7812 73.8919C56.7812 68.8352 56.7719 68.5395 56.6083 68.3909C56.3617 68.1669 55.9702 68.1928 55.7944 68.4448Z" fill="#303A30"/>
<path d="M57.8733 68.4448C57.7443 68.6296 57.7261 69.3247 57.7261 74.088C57.7261 79.394 57.7306 79.5249 57.9151 79.7101C58.0191 79.8145 58.1892 79.8998 58.2931 79.8998C58.3971 79.8998 58.5672 79.8145 58.6711 79.7101C58.8558 79.5248 58.8601 79.394 58.8601 74.0342C58.8601 68.8396 58.8509 68.5395 58.6873 68.3909C58.4406 68.1669 58.0491 68.1928 57.8733 68.4448Z" fill="#303A30"/>
<path d="M59.9615 68.4074C59.8197 68.5646 59.8051 69.0926 59.8051 74.0295C59.8051 78.8075 59.8232 79.5042 59.9522 79.689C60.1358 79.9522 60.4992 79.9619 60.75 79.7101C60.9346 79.5249 60.939 79.394 60.939 74.088C60.939 69.3247 60.9209 68.6296 60.7919 68.4448C60.6103 68.1844 60.1799 68.1651 59.9615 68.4074Z" fill="#303A30"/>
<path d="M62.0376 68.3778C61.8993 68.5167 61.884 69.083 61.884 74.0589C61.884 79.2929 61.8932 79.5942 62.0568 79.7429C62.2688 79.9354 62.5439 79.9438 62.7873 79.7652C62.9647 79.6351 62.9715 79.4519 62.9941 74.1931C63.0125 69.9447 62.9914 68.7037 62.8975 68.5185C62.7496 68.2265 62.2671 68.1475 62.0376 68.3778Z" fill="#303A30"/>
<path d="M64.0607 68.4174C63.9967 68.5376 63.9629 70.4287 63.9629 73.9002C63.9629 79.6309 63.9552 79.5442 64.4661 79.5442C65.027 79.5442 65.0024 79.8038 65.0024 73.8846C65.0024 69.7931 64.9745 68.4336 64.889 68.3478C64.7043 68.1624 64.1729 68.2071 64.0607 68.4174Z" fill="#303A30"/>
<path d="M66.1552 68.3478C66.0699 68.4334 66.0419 69.7081 66.0419 73.5021C66.0419 78.2648 66.0514 78.5512 66.2147 78.6996C66.4414 78.9055 66.7304 78.8987 66.9249 78.6831C67.0663 78.5264 67.0813 78.0322 67.0813 73.5553C67.0813 70.3215 67.0473 68.5372 66.9835 68.4174C66.8713 68.2071 66.3399 68.1624 66.1552 68.3478Z" fill="#303A30"/>
<path d="M68.2342 68.3478C68.1491 68.4331 68.1208 69.5922 68.1208 72.9804C68.1208 77.2378 68.1308 77.5084 68.2936 77.6563C68.5092 77.8522 68.6813 77.8546 68.9502 77.6656L69.1602 77.518V73.0595C69.1602 70.1674 69.1258 68.5364 69.0624 68.4174C68.9503 68.2071 68.4188 68.1624 68.2342 68.3478Z" fill="#303A30"/>
<path d="M70.2523 68.4448C70.1255 68.6264 70.1052 69.1452 70.1052 72.1973C70.1052 75.7103 70.1303 76.0247 70.4265 76.2232C70.6108 76.3467 70.8564 76.3005 71.0502 76.1061C71.2326 75.9229 71.2392 75.7899 71.2392 72.2242C71.2392 68.9941 71.2205 68.5134 71.0907 68.383C70.8702 68.1618 70.427 68.1944 70.2523 68.4448Z" fill="#303A30"/>
<path d="M72.3313 68.4448C72.1186 68.7494 72.1113 73.5883 72.3229 73.8917C72.524 74.1798 72.8049 74.2212 73.0807 74.0034L73.3181 73.816V71.1819C73.3181 68.7506 73.3048 68.5358 73.1453 68.3909C72.8986 68.1669 72.5071 68.1928 72.3313 68.4448Z" fill="#303A30"/>
<path d="M74.4194 68.4074C74.2958 68.5446 74.2633 68.7779 74.2645 69.5218C74.2661 70.5281 74.289 70.6104 74.6174 70.7839C74.8647 70.9146 75.1461 70.8035 75.3003 70.5143C75.4591 70.2165 75.422 68.6913 75.2499 68.4448C75.0683 68.1844 74.6379 68.1651 74.4194 68.4074Z" fill="#303A30"/>
</svg>
