<svg width="36" height="36" viewBox="0 0 36 36" fill="none" xmlns="http://www.w3.org/2000/svg">
<path d="M0 18C0 8.05888 8.05888 0 18 0C27.9411 0 36 8.05888 36 18C36 27.9411 27.9411 36 18 36C8.05888 36 0 27.9411 0 18Z" fill="white"/>
<path d="M18 0.5C27.665 0.5 35.5 8.33502 35.5 18C35.5 27.665 27.665 35.5 18 35.5C8.33502 35.5 0.5 27.665 0.5 18C0.5 8.33502 8.33502 0.5 18 0.5Z" stroke="#007D21" stroke-opacity="0.2"/>
<path d="M14.25 18H21.75" stroke="#007D21" stroke-width="1.5" stroke-linecap="round" stroke-linejoin="round"/>
<path d="M18.4172 22.1654L22.5839 17.9987L18.4172 13.832" stroke="#007D21" stroke-width="1.5" stroke-linecap="round" stroke-linejoin="round"/>
</svg>
