<svg width="64" height="64" viewBox="0 0 64 64" fill="none" xmlns="http://www.w3.org/2000/svg">
<g clip-path="url(#clip0_2136_3962)">
<path d="M32 64C40.4869 64 48.6263 60.6286 54.6274 54.6274C60.6286 48.6263 64 40.4869 64 32C64 23.5131 60.6286 15.3737 54.6274 9.37258C48.6263 3.37142 40.4869 0 32 0C23.5131 0 15.3737 3.37142 9.37258 9.37258C3.37142 15.3737 0 23.5131 0 32C0 40.4869 3.37142 48.6263 9.37258 54.6274C15.3737 60.6286 23.5131 64 32 64Z" fill="white"/>
<path d="M20 20L44 44" stroke="#007D21" stroke-width="2" stroke-linecap="round" stroke-linejoin="round"/>
<path d="M44 20L20 44" stroke="#007D21" stroke-width="2" stroke-linecap="round" stroke-linejoin="round"/>
</g>
<defs>
<clipPath id="clip0_2136_3962">
<rect width="64" height="64" fill="white"/>
</clipPath>
</defs>
</svg>
