<svg width="12" height="20" viewBox="0 0 12 20" fill="none" xmlns="http://www.w3.org/2000/svg">
<path d="M3.60244 19.0274V11.7534H0.818438C0.673895 11.7534 0.535272 11.696 0.433064 11.5938C0.330857 11.4916 0.273438 11.353 0.273438 11.2084V8.33141C0.273438 8.18687 0.330857 8.04825 0.433064 7.94604C0.535272 7.84383 0.673895 7.78641 0.818438 7.78641H3.59144V5.00141C3.5251 4.34097 3.60417 3.674 3.82309 3.04737C4.042 2.42074 4.39546 1.84963 4.85863 1.37417C5.3218 0.898707 5.88345 0.530414 6.50413 0.295161C7.12481 0.0599081 7.78948 -0.0366004 8.45144 0.0124143H10.7714C10.9174 0.0121283 11.0575 0.0692158 11.1617 0.171361C11.2659 0.273506 11.3258 0.412521 11.3284 0.558414V2.99441C11.3253 3.14005 11.2652 3.27866 11.1611 3.38054C11.057 3.48241 10.9171 3.53945 10.7714 3.53941H9.32144C7.75544 3.53941 7.45444 4.28141 7.45444 5.37241V7.78541H11.1774C11.2548 7.78285 11.3318 7.79717 11.4031 7.82739C11.4744 7.8576 11.5382 7.90298 11.5902 7.96037C11.6422 8.01776 11.681 8.08578 11.704 8.1597C11.727 8.23362 11.7336 8.31167 11.7234 8.38841L11.3864 11.2764C11.3696 11.4087 11.3048 11.5302 11.2043 11.6179C11.1039 11.7056 10.9748 11.7535 10.8414 11.7524H7.47744V19.0264C7.47933 19.1549 7.45539 19.2825 7.40705 19.4016C7.35871 19.5207 7.28695 19.6289 7.19602 19.7197C7.10509 19.8105 6.99684 19.8822 6.8777 19.9304C6.75856 19.9786 6.63095 20.0024 6.50244 20.0004H4.56544C4.43793 20.0008 4.31162 19.9758 4.19387 19.9269C4.07613 19.878 3.96932 19.8061 3.87967 19.7154C3.79002 19.6247 3.71933 19.5171 3.67173 19.3988C3.62413 19.2805 3.60058 19.1549 3.60244 19.0274Z" fill="#303A30"/>
</svg>
