<svg width="70" height="89" viewBox="0 0 70 89" fill="none" xmlns="http://www.w3.org/2000/svg">
<path fill-rule="evenodd" clip-rule="evenodd" d="M44.2008 67.7159C43.6811 67.8409 42.7881 68.0548 42.2164 68.1914C40.9738 68.4883 40.0674 68.8922 39.2504 69.5135C38.1256 70.3688 37.0925 71.9327 36.7154 73.3512C36.5367 74.023 36.5189 74.877 36.5789 79.8955L36.6113 82.5986L35.6812 82.8207C35.1697 82.9429 34.7407 83.0529 34.7279 83.0653C34.6999 83.0924 35.9073 88.3452 35.9498 88.3811C35.9862 88.4117 39.4217 87.6169 39.471 87.5664C39.4903 87.5466 39.4191 87.1557 39.313 86.6976C39.2068 86.2395 39.1362 85.8493 39.1562 85.8305C39.1762 85.8118 40.9785 85.3848 43.1614 84.8817C45.3442 84.3785 47.1804 83.9495 47.2418 83.9284C47.3141 83.9034 47.4255 84.2076 47.5582 84.792C47.6883 85.3654 47.8027 85.6798 47.8718 85.6547C47.9317 85.633 48.7036 85.4524 49.5871 85.2533C50.4707 85.0542 51.2226 84.8663 51.2581 84.8357C51.3227 84.7799 50.1769 79.6497 50.0775 79.5499C50.0485 79.5208 49.6507 79.5854 49.1937 79.6935C48.7367 79.8016 48.3358 79.8593 48.3028 79.8216C48.2699 79.7841 47.6104 76.9896 46.8372 73.612C45.728 68.7666 45.4013 67.4728 45.2886 67.4798C45.21 67.4847 44.7206 67.5909 44.2008 67.7159ZM40.4822 73.6217C40.7945 72.9533 41.3762 72.3607 42.0119 72.0637C42.2803 71.9382 42.5408 71.8489 42.5909 71.8651C42.6685 71.8902 44.7428 80.6635 44.6849 80.7217C44.6736 80.7331 43.6823 80.9707 42.482 81.2498L40.2998 81.7573L40.2328 79.1903C40.196 77.7785 40.1806 76.0685 40.1989 75.3904C40.2283 74.2948 40.2598 74.0977 40.4822 73.6217Z" fill="#303A30"/>
<path fill-rule="evenodd" clip-rule="evenodd" d="M54.5384 60.8714C53.0619 62.1124 52.6017 62.7136 52.2344 63.8804C52.0483 64.4717 51.997 64.8347 51.9975 65.5552C51.9987 67.2363 52.0775 67.4417 55.1383 73.7378C56.6579 76.8637 57.9244 79.4213 57.9527 79.4213C58.0326 79.4213 60.7341 77.1508 60.7663 77.0566C60.782 77.0106 60.4286 76.2389 59.9811 75.3416C59.5336 74.4444 59.1805 73.698 59.1966 73.6831C59.2126 73.6681 60.1983 72.8434 61.387 71.8504L63.5482 70.0448L64.8627 71.0579C65.5857 71.615 66.2525 72.1237 66.3443 72.1883C66.4902 72.291 66.684 72.1617 67.8769 71.1663C68.6279 70.5396 69.2545 69.9915 69.2693 69.9484C69.2923 69.8811 55.9704 59.7864 55.8628 59.7896C55.8414 59.7903 55.2454 60.2771 54.5384 60.8714ZM55.6274 65.9836C55.5653 65.5679 55.7092 64.7741 55.8851 64.5611C55.9553 64.4764 56.3871 64.7473 57.5555 65.6089C58.4222 66.2479 59.4426 66.998 59.8229 67.2756C60.2034 67.5531 60.4798 67.8108 60.4371 67.8483C59.6744 68.5186 57.5548 70.2357 57.526 70.2067C57.3508 70.0308 55.6753 66.3039 55.6274 65.9836Z" fill="#303A30"/>
<path fill-rule="evenodd" clip-rule="evenodd" d="M23.2976 68.0906C22.1706 68.3953 21.344 68.9253 20.38 69.9613C19.7806 70.6055 19.4684 71.1349 16.7017 76.1979C15.0389 79.2409 13.6663 81.7595 13.6516 81.7948C13.6368 81.83 14.381 82.0599 15.3053 82.3057C16.2295 82.5513 17.0496 82.7696 17.1275 82.7905C17.2284 82.8177 17.5241 82.3537 18.1517 81.1838L19.0341 79.539L20.2306 79.8585C20.8887 80.0344 22.1075 80.3627 22.9391 80.5882L24.451 80.9984V82.8802V84.762L26.185 85.2278C27.1388 85.484 27.9334 85.6792 27.951 85.6617C28.0198 85.5926 28.4606 68.8496 28.3951 68.7927C28.3568 68.7594 27.6416 68.555 26.8059 68.3386C25.1334 67.9054 24.2208 67.841 23.2976 68.0906ZM23.1131 72.346C23.2699 72.155 23.6138 71.8981 23.8773 71.775C24.732 71.3756 24.6874 71.2822 24.6868 73.4698C24.6865 74.5262 24.6594 75.7983 24.6265 76.2968L24.5667 77.2032L22.7607 76.7139C21.7673 76.4449 20.9632 76.1819 20.9736 76.1296C21.0181 75.9078 22.853 72.6628 23.1131 72.346Z" fill="#303A30"/>
<path d="M8.10311 59.3128C6.08438 59.7218 4.51677 60.5778 3.15867 62.0127C1.56508 63.6965 0.724248 65.6775 0.617277 68.0001C0.5173 70.1718 1.04232 71.5378 2.56882 73.0775C3.31979 73.835 3.60866 74.0556 4.276 74.3811C5.47781 74.9674 6.08882 75.0999 7.58338 75.0983C8.49565 75.0973 9.03409 75.0497 9.47331 74.9314C10.2845 74.7128 10.9868 74.4647 10.9789 74.3994C10.9754 74.3707 10.643 73.6215 10.2402 72.7347C9.72618 71.603 9.46755 71.1329 9.37248 71.1578C9.29802 71.1771 9.00319 71.2562 8.71734 71.3334C7.90486 71.5529 6.62764 71.4618 6.00444 71.1401C5.36422 70.8096 4.78637 70.2093 4.48105 69.5574C3.83423 68.1768 4.48295 65.8629 5.92279 64.4151C7.25519 63.0752 9.56318 62.4036 10.8274 62.9879C11.7429 63.411 12.4733 64.2112 12.6936 65.0324C12.8398 65.5777 12.8083 66.8743 12.6344 67.4589C12.5511 67.7393 12.518 68.0034 12.5609 68.0458C12.6038 68.0882 13.3469 68.4401 14.2122 68.8277L15.7856 69.5326L15.8876 69.3078C15.9437 69.1842 16.0843 68.731 16.2 68.3007C16.479 67.2629 16.5013 65.0984 16.2427 64.1513C15.5956 61.7818 13.7139 59.9055 11.3854 59.3078C10.4872 59.0772 9.25682 59.0791 8.10311 59.3128Z" fill="#303A30"/>
<path d="M16.3942 4.47038L16.4188 8.3353L26.8371 8.35939C32.5672 8.37267 37.2529 8.41535 37.2498 8.45423C37.2467 8.49312 34.9974 11.8113 32.2513 15.828C29.5051 19.8447 27.2921 23.1438 27.3335 23.1595C27.375 23.1752 28.4531 22.9915 29.7293 22.7514C32.3141 22.2649 33.8106 22.1301 35.4599 22.2348C38.0926 22.4021 39.9979 22.9273 42.3581 24.1365C47.0945 26.5629 50.3576 30.8915 51.5013 36.265C51.7328 37.3529 51.7542 37.6356 51.7572 39.634C51.7602 41.5457 51.7335 41.9492 51.5424 42.8966C50.0214 50.4339 44.2309 55.9402 36.7137 56.9977C35.1075 57.2236 32.5272 57.1393 30.9648 56.8098C28.201 56.227 25.4975 54.9379 23.3395 53.174C22.4127 52.4164 20.9578 50.8522 20.2218 49.8222C19.4181 48.6972 18.3096 46.4969 17.8583 45.1307C17.6502 44.5007 17.3214 43.0662 17.0331 41.5313C16.7696 40.1277 16.5398 38.965 16.5224 38.9475C16.5049 38.9301 15.4354 40.4645 14.1455 42.3574C12.8556 44.2502 11.5778 46.1196 11.3061 46.5116L10.8118 47.2243L11.2759 48.4448C12.2018 50.8794 13.6383 53.3978 15.2334 55.3828C16.7427 57.261 19.2202 59.4388 21.3551 60.7639C30.1818 66.2427 41.3927 65.6367 49.6344 59.2352C50.736 58.3795 52.7099 56.4279 53.6312 55.2833C55.2174 53.3127 56.7949 50.5424 57.6201 48.2781C59.9635 41.848 59.5917 34.837 56.5831 28.7269C55.3061 26.1333 53.8517 24.0895 51.8567 22.085C51.2841 21.5097 50.4541 20.7487 50.0124 20.3939C47.9197 18.7132 45.1999 17.1667 42.8992 16.3497C42.2383 16.1149 41.6974 15.8875 41.6971 15.8443C41.6969 15.8011 44.0142 12.378 46.8467 8.23742C49.6793 4.09679 51.9968 0.685802 51.9968 0.657254C51.9968 0.6288 43.9806 0.605469 34.1831 0.605469H16.3695L16.3942 4.47038Z" fill="#303A30"/>
<path fill-rule="evenodd" clip-rule="evenodd" d="M32.6454 25.8359C31.5328 26.1284 30.6966 26.6237 29.8329 27.5017L29.0724 28.2747L28.1953 27.3389C27.0607 26.1287 26.9875 26.1202 26.0766 27.0908C23.2227 30.1316 22.4741 32.8883 23.8094 35.4388C24.1804 36.1473 25.2319 37.3403 26.0112 37.9368L26.4827 38.2977V39.3068C26.4827 40.4184 26.5774 40.6299 27.0754 40.6299C27.4993 40.6299 27.6167 40.3301 27.6167 39.2475V38.2867L28.1823 37.8407C28.4935 37.5953 29.0104 37.1004 29.3311 36.741L29.9142 36.0874L30.3416 36.465C30.8878 36.9475 31.9212 37.4549 32.7667 37.6557C33.1305 37.7421 33.4814 37.8265 33.5463 37.8431C33.6335 37.8654 33.6644 38.2057 33.6644 39.1379C33.6644 40.503 33.7057 40.6299 34.1491 40.6299C34.6432 40.6299 34.7039 40.4578 34.7039 39.0582V37.7845H34.9775C35.3338 37.7845 36.4267 37.4444 36.9909 37.158C37.2353 37.0339 37.6635 36.7457 37.9425 36.5176L38.4499 36.1028L39.0869 36.8004C39.4372 37.1841 39.9551 37.6792 40.2378 37.9008L40.7517 38.3037V39.2559C40.7517 40.3503 40.8671 40.6299 41.3187 40.6299C41.7719 40.6299 41.8857 40.3512 41.8857 39.2416V38.2749L42.3345 37.9441C42.9709 37.475 43.8797 36.5 44.3249 35.8087C45.9418 33.2978 45.2691 30.2764 42.4293 27.2951C41.306 26.1157 41.3274 26.115 40.1439 27.3642C39.6432 27.8929 39.2215 28.309 39.207 28.289C37.6327 26.131 35.11 25.1877 32.6454 25.8359ZM30.6497 28.2036C31.2735 27.5677 32.4634 26.9288 33.2865 26.788C33.9261 26.6784 34.9772 26.7405 35.5824 26.9236C38.6223 27.843 40.045 31.2936 38.5517 34.1252C38.1633 34.8616 37.2735 35.7557 36.5466 36.1397C36.0322 36.4116 35.7547 36.5074 34.9638 36.6861L34.7039 36.7448V34.1529C34.7039 31.3434 34.6822 31.2165 34.2007 31.2165C33.6659 31.2165 33.6644 31.2239 33.6644 34.034C33.6644 35.4534 33.6405 36.6388 33.6112 36.6682C33.5071 36.7727 32.3972 36.4471 31.8379 36.1479C30.2189 35.2818 29.2309 33.6205 29.2256 31.7554C29.2215 30.3358 29.6802 29.1918 30.6497 28.2036ZM25.3968 29.6753C25.673 29.258 26.1401 28.6499 26.435 28.3238C26.7298 27.9978 27.0089 27.731 27.0552 27.731C27.1015 27.731 27.4401 28.0831 27.8077 28.5135C28.5404 29.3711 28.5116 29.2442 28.2425 30.4341C27.9339 31.799 28.1355 33.3027 28.8 34.5943L29.135 35.2453L28.7416 35.7571C28.5252 36.0385 28.1942 36.4046 28.0061 36.5705L27.6639 36.8722L27.6167 34.2223C27.5907 32.7647 27.5331 31.5159 27.4889 31.447C27.2941 31.1441 26.7625 31.156 26.555 31.4679C26.5168 31.5253 26.485 32.7566 26.4841 34.2041C26.4834 35.7132 26.4461 36.8361 26.3971 36.8361C26.2085 36.8361 25.0706 35.4739 24.754 34.869C23.9079 33.2529 24.1099 31.6205 25.3968 29.6753ZM39.8971 29.62C39.8006 29.4391 40.045 29.0598 40.7932 28.2289C41.0399 27.9551 41.2716 27.731 41.3083 27.731C41.5716 27.731 43.012 29.6282 43.4946 30.6108C44.1716 31.9891 44.2878 33.1803 43.8579 34.3337C43.6278 34.9509 42.89 36.0107 42.3486 36.5018L41.9329 36.8788L41.8857 34.1932C41.8385 31.5116 41.8381 31.5075 41.6153 31.3266C41.3366 31.1003 41.3059 31.101 41.0007 31.342L40.7517 31.5385V34.1874C40.7517 35.6768 40.7147 36.8361 40.6674 36.8361C40.5704 36.8361 39.5869 35.7888 39.3655 35.4497C39.2253 35.2348 39.2354 35.1871 39.5501 34.5828C40.2221 33.2919 40.4207 31.9512 40.1432 30.5769C40.0548 30.1387 39.944 29.7081 39.8971 29.62Z" fill="#303A30"/>
<path d="M19.1309 41.9767C18.9703 42.1378 18.9903 42.5807 19.1659 42.7571C19.2997 42.8913 20.8002 42.9061 34.2707 42.9061C48.6402 42.9061 49.2332 42.8993 49.3835 42.7327C49.5806 42.5141 49.584 42.2051 49.3914 42.0118C49.2576 41.8776 47.7533 41.8628 34.2436 41.8628C22.7034 41.8628 19.2181 41.8891 19.1309 41.9767Z" fill="#303A30"/>
<path d="M19.3629 44.4074C19.2374 44.5467 19.2065 44.7863 19.2065 45.6223C19.2065 46.7216 19.2674 46.913 19.6537 47.0282C19.8077 47.0741 19.9292 47.0265 20.1026 46.8524C20.326 46.6282 20.3404 46.5542 20.3404 45.6346C20.3404 44.9019 20.3034 44.6025 20.1933 44.4448C20.0117 44.1844 19.5813 44.1651 19.3629 44.4074Z" fill="#303A30"/>
<path d="M21.4338 44.383C21.3059 44.5115 21.2854 44.9036 21.2854 47.2283C21.2854 49.7982 21.2943 49.9335 21.4744 50.1143C21.7018 50.3426 21.8373 50.3515 22.1148 50.1563C22.3237 50.0095 22.3249 49.9938 22.3249 47.2351C22.3249 45.2044 22.2945 44.4311 22.2115 44.3478C22.0509 44.1866 21.6096 44.2066 21.4338 44.383Z" fill="#303A30"/>
<path d="M23.4611 44.4195C23.3957 44.542 23.3706 45.8841 23.3868 48.3756L23.4116 52.1463L23.6606 52.2864C23.8839 52.4123 23.935 52.41 24.1567 52.2642L24.4038 52.1017V48.2816C24.4038 45.437 24.3749 44.4326 24.2904 44.3478C24.1047 44.1614 23.5742 44.2072 23.4611 44.4195Z" fill="#303A30"/>
<path d="M25.5566 44.3478C25.3933 44.5118 25.3933 53.5355 25.5566 53.6994C25.7172 53.8606 26.1585 53.8406 26.3342 53.6643C26.465 53.533 26.4827 52.9835 26.4827 49.058C26.4827 46.167 26.4483 44.5364 26.3849 44.4174C26.2727 44.2071 25.7413 44.1624 25.5566 44.3478Z" fill="#303A30"/>
<path d="M27.6356 44.3478C27.472 44.5119 27.472 54.5786 27.6356 54.7427C27.7961 54.9039 28.2374 54.8839 28.4132 54.7075C28.5444 54.5758 28.5616 53.9763 28.5616 49.5452C28.5616 45.1142 28.5444 44.5147 28.4132 44.383C28.2374 44.2066 27.7961 44.1866 27.6356 44.3478Z" fill="#303A30"/>
<path d="M29.6537 44.4448C29.5248 44.6294 29.5066 45.3055 29.5066 49.8856C29.5066 55.033 29.5097 55.1194 29.7025 55.3654C29.9362 55.6637 30.1938 55.6843 30.4516 55.4256C30.6361 55.2404 30.6406 55.1095 30.6406 49.8919C30.6406 44.8352 30.6313 44.5395 30.4677 44.3909C30.2211 44.1669 29.8296 44.1928 29.6537 44.4448Z" fill="#303A30"/>
<path d="M31.7327 44.4448C31.6037 44.6296 31.5855 45.3247 31.5855 50.088C31.5855 55.394 31.59 55.5249 31.7745 55.7101C31.8785 55.8145 32.0486 55.8998 32.1525 55.8998C32.2564 55.8998 32.4265 55.8145 32.5305 55.7101C32.7151 55.5248 32.7195 55.394 32.7195 50.0342C32.7195 44.8396 32.7103 44.5395 32.5466 44.3909C32.3 44.1669 31.9085 44.1928 31.7327 44.4448Z" fill="#303A30"/>
<path d="M33.8208 44.4074C33.6791 44.5646 33.6644 45.0926 33.6644 50.0295C33.6644 54.8075 33.6826 55.5042 33.8116 55.689C33.9952 55.9522 34.3586 55.9619 34.6094 55.7101C34.794 55.5249 34.7984 55.394 34.7984 50.088C34.7984 45.3247 34.7803 44.6296 34.6513 44.4448C34.4697 44.1844 34.0393 44.1651 33.8208 44.4074Z" fill="#303A30"/>
<path d="M35.8969 44.3778C35.7587 44.5167 35.7434 45.083 35.7434 50.0589C35.7434 55.2929 35.7525 55.5942 35.9162 55.7429C36.1282 55.9354 36.4032 55.9438 36.6467 55.7652C36.824 55.6351 36.8308 55.4519 36.8535 50.1931C36.8718 45.9447 36.8508 44.7037 36.7568 44.5185C36.609 44.2265 36.1265 44.1475 35.8969 44.3778Z" fill="#303A30"/>
<path d="M37.9201 44.4174C37.856 44.5376 37.8223 46.4287 37.8223 49.9002C37.8223 55.6309 37.8146 55.5442 38.3255 55.5442C38.8863 55.5442 38.8618 55.8038 38.8618 49.8846C38.8618 45.7931 38.8339 44.4336 38.7484 44.3478C38.5637 44.1624 38.0323 44.2071 37.9201 44.4174Z" fill="#303A30"/>
<path d="M40.0146 44.3478C39.9293 44.4334 39.9012 45.7081 39.9012 49.5021C39.9012 54.2648 39.9108 54.5512 40.0741 54.6996C40.3008 54.9055 40.5898 54.8987 40.7843 54.6831C40.9257 54.5264 40.9407 54.0322 40.9407 49.5553C40.9407 46.3215 40.9067 44.5372 40.8429 44.4174C40.7307 44.2071 40.1993 44.1624 40.0146 44.3478Z" fill="#303A30"/>
<path d="M42.0935 44.3478C42.0085 44.4331 41.9802 45.5922 41.9802 48.9804C41.9802 53.2378 41.9902 53.5084 42.153 53.6563C42.3686 53.8522 42.5407 53.8546 42.8095 53.6656L43.0196 53.518V49.0595C43.0196 46.1674 42.9852 44.5364 42.9218 44.4174C42.8096 44.2071 42.2782 44.1624 42.0935 44.3478Z" fill="#303A30"/>
<path d="M44.1117 44.4448C43.9849 44.6264 43.9646 45.1452 43.9646 48.1973C43.9646 51.7103 43.9897 52.0247 44.2859 52.2232C44.4701 52.3467 44.7158 52.3005 44.9095 52.1061C45.092 51.9229 45.0985 51.7899 45.0985 48.2242C45.0985 44.9941 45.0799 44.5134 44.9501 44.383C44.7296 44.1618 44.2863 44.1944 44.1117 44.4448Z" fill="#303A30"/>
<path d="M46.1906 44.4448C45.978 44.7494 45.9706 49.5883 46.1823 49.8917C46.3834 50.1798 46.6642 50.2212 46.9401 50.0034L47.1775 49.816V47.1819C47.1775 44.7506 47.1641 44.5358 47.0046 44.3909C46.758 44.1669 46.3665 44.1928 46.1906 44.4448Z" fill="#303A30"/>
<path d="M48.2788 44.4074C48.1552 44.5446 48.1227 44.7779 48.1238 45.5218C48.1255 46.5281 48.1484 46.6104 48.4768 46.7839C48.7241 46.9146 49.0055 46.8035 49.1597 46.5143C49.3185 46.2165 49.2813 44.6913 49.1093 44.4448C48.9276 44.1844 48.4973 44.1651 48.2788 44.4074Z" fill="#303A30"/>
</svg>
