<svg width="76" height="96" viewBox="0 0 76 96" fill="none" xmlns="http://www.w3.org/2000/svg">
<path fill-rule="evenodd" clip-rule="evenodd" d="M47.8091 73.1981C47.2439 73.3339 46.2729 73.5666 45.6512 73.7151C44.3 74.0379 43.3144 74.4771 42.426 75.1528C41.2029 76.0828 40.0795 77.7834 39.6694 79.3258C39.4751 80.0563 39.4558 80.9849 39.521 86.442L39.5563 89.3813L38.5449 89.6229C37.9887 89.7557 37.5222 89.8753 37.5083 89.8888C37.4779 89.9183 38.7908 95.6302 38.837 95.6692C38.8766 95.7025 42.6122 94.8382 42.6659 94.7833C42.6868 94.7618 42.6095 94.3367 42.4941 93.8385C42.3786 93.3404 42.3018 92.9161 42.3236 92.8957C42.3453 92.8754 44.3051 92.4111 46.6787 91.864C49.0524 91.3168 51.049 90.8504 51.1158 90.8274C51.1944 90.8002 51.3156 91.131 51.4598 91.7665C51.6013 92.3899 51.7257 92.7318 51.8009 92.7046C51.866 92.681 52.7053 92.4846 53.6661 92.268C54.6268 92.0516 55.4445 91.8472 55.4831 91.8139C55.5534 91.7533 54.3074 86.1747 54.1993 86.0662C54.1677 86.0346 53.7352 86.1048 53.2383 86.2224C52.7413 86.3399 52.3054 86.4026 52.2695 86.3617C52.2338 86.3208 51.5166 83.2822 50.6758 79.6095C49.4697 74.3406 49.1145 72.9336 48.9919 72.9413C48.9065 72.9466 48.3742 73.0621 47.8091 73.1981ZM43.7654 79.62C44.1051 78.8931 44.7376 78.2487 45.4288 77.9258C45.7207 77.7894 46.004 77.6922 46.0584 77.7098C46.1428 77.7372 48.3984 87.2772 48.3355 87.3404C48.3231 87.3528 47.2452 87.6111 45.94 87.9147L43.5671 88.4665L43.4943 85.6752C43.4542 84.14 43.4376 82.2806 43.4574 81.5432C43.4893 80.3519 43.5237 80.1376 43.7654 79.62Z" fill="white"/>
<path fill-rule="evenodd" clip-rule="evenodd" d="M59.05 65.7554C57.4445 67.1049 56.9441 67.7585 56.5447 69.0274C56.3423 69.6703 56.2865 70.065 56.2871 70.8485C56.2884 72.6765 56.3741 72.8998 59.7024 79.7462C61.3548 83.1453 62.7319 85.9264 62.7628 85.9264C62.8496 85.9264 65.7873 83.4575 65.8222 83.355C65.8393 83.305 65.455 82.4658 64.9684 81.4902C64.4818 80.5146 64.0979 79.7029 64.1153 79.6867C64.1328 79.6704 65.2046 78.7737 66.4972 77.6939L68.8473 75.7305L70.2766 76.8321C71.0628 77.4379 71.7878 77.991 71.8877 78.0613C72.0464 78.1729 72.2571 78.0323 73.5542 76.95C74.3709 76.2685 75.0523 75.6725 75.0683 75.6256C75.0934 75.5525 60.6072 64.5755 60.4902 64.579C60.4669 64.5798 59.8188 65.1091 59.05 65.7554ZM60.2343 71.3143C60.1667 70.8623 60.3232 69.9991 60.5145 69.7675C60.5907 69.6755 61.0603 69.97 62.3308 70.9069C63.2733 71.6018 64.3828 72.4174 64.7964 72.7192C65.2101 73.021 65.5106 73.3012 65.4643 73.3419C64.6349 74.0709 62.3301 75.938 62.2987 75.9065C62.1082 75.7152 60.2863 71.6626 60.2343 71.3143Z" fill="white"/>
<path fill-rule="evenodd" clip-rule="evenodd" d="M25.0791 73.6055C23.8536 73.9368 22.9547 74.5131 21.9065 75.6396C21.2547 76.3401 20.9152 76.9158 17.9068 82.4213C16.0986 85.7302 14.6061 88.4689 14.59 88.5073C14.574 88.5456 15.3832 88.7956 16.3883 89.0629C17.3933 89.33 18.285 89.5673 18.3698 89.5901C18.4794 89.6196 18.801 89.115 19.4834 87.8429L20.443 86.0544L21.744 86.4018C22.4596 86.593 23.785 86.9501 24.6892 87.1953L26.3333 87.6413V89.6875V91.7338L28.2188 92.2404C29.2559 92.5189 30.12 92.7312 30.1391 92.7121C30.2139 92.637 30.6933 74.4308 30.6221 74.3689C30.5804 74.3327 29.8027 74.1105 28.8939 73.8751C27.0753 73.4041 26.083 73.334 25.0791 73.6055ZM24.8785 78.2327C25.049 78.0251 25.4229 77.7457 25.7095 77.6119C26.6388 77.1776 26.5903 77.076 26.5897 79.4548C26.5893 80.6034 26.5599 81.9868 26.5241 82.5288L26.4591 83.5145L24.4952 82.9824C23.415 82.6898 22.5407 82.4038 22.552 82.347C22.6003 82.1058 24.5956 78.5773 24.8785 78.2327Z" fill="white"/>
<path d="M8.55669 64.0606C6.36153 64.5053 4.65693 65.4361 3.18014 66.9964C1.44728 68.8274 0.532968 70.9814 0.416649 73.5071C0.307934 75.8685 0.878841 77.3539 2.53874 79.0282C3.35534 79.8519 3.66946 80.0918 4.39511 80.4458C5.70195 81.0832 6.36636 81.2273 7.99153 81.2255C8.98353 81.2245 9.56903 81.1727 10.0466 81.0441C10.9287 80.8064 11.6924 80.5366 11.6838 80.4657C11.68 80.4344 11.3185 79.6198 10.8806 78.6555C10.3216 77.4248 10.0404 76.9137 9.93699 76.9407C9.85602 76.9617 9.53543 77.0477 9.22459 77.1317C8.34111 77.3703 6.95227 77.2713 6.2746 76.9215C5.57844 76.5621 4.95009 75.9093 4.61809 75.2005C3.91473 73.6992 4.62015 71.1831 6.18582 69.6087C7.63467 68.1518 10.1444 67.4215 11.5191 68.0569C12.5146 68.517 13.3088 69.387 13.5483 70.28C13.7074 70.8729 13.6731 72.2829 13.484 72.9186C13.3934 73.2234 13.3574 73.5107 13.404 73.5568C13.4507 73.6029 14.2588 73.9855 15.1997 74.407L16.9106 75.1735L17.0214 74.9291C17.0825 74.7947 17.2354 74.3018 17.3611 73.8339C17.6646 72.7054 17.6888 70.3518 17.4076 69.3219C16.7039 66.7453 14.6579 64.7051 12.1258 64.0551C11.1491 63.8044 9.81122 63.8065 8.55669 64.0606Z" fill="white"/>
<path d="M17.5723 4.42533L17.5991 8.62801L28.9278 8.65421C35.1587 8.66865 40.2539 8.71506 40.2506 8.75734C40.2472 8.79963 37.8013 12.4078 34.8152 16.7755C31.829 21.1432 29.4226 24.7307 29.4677 24.7477C29.5128 24.7649 30.6852 24.5651 32.0729 24.304C34.8835 23.775 36.5108 23.6283 38.3042 23.7422C41.167 23.9241 43.2388 24.4953 45.8053 25.8101C50.9556 28.4486 54.5038 33.1555 55.7475 38.9986C55.9992 40.1815 56.0226 40.489 56.0259 42.662C56.029 44.7407 56.0001 45.1795 55.7922 46.2098C54.1383 54.4058 47.8417 60.3933 39.6676 61.5431C37.9211 61.7888 35.1152 61.6971 33.4163 61.3388C30.411 60.705 27.4712 59.3033 25.1246 57.3853C24.1169 56.5614 22.5347 54.8606 21.7345 53.7405C20.8606 52.5173 19.6551 50.1247 19.1644 48.6391C18.9381 47.9539 18.5805 46.3942 18.2671 44.7251C17.9805 43.1988 17.7306 41.9345 17.7117 41.9155C17.6927 41.8965 16.5297 43.565 15.1271 45.6233C13.7245 47.6816 12.3351 49.7143 12.0396 50.1406L11.5021 50.9156L12.0068 52.2427C13.0136 54.8902 14.5757 57.6287 16.3102 59.7871C17.9513 61.8295 20.6453 64.1975 22.9668 65.6385C32.5649 71.5961 44.7555 70.9371 53.7175 63.9762C54.9154 63.0457 57.0617 60.9236 58.0636 59.679C59.7884 57.5361 61.5038 54.5237 62.4011 52.0615C64.9493 45.0695 64.545 37.4458 61.2734 30.8017C59.8848 27.9814 58.3033 25.759 56.134 23.5793C55.5114 22.9537 54.6089 22.1263 54.1285 21.7405C51.853 19.9128 48.8955 18.2313 46.3937 17.3428C45.675 17.0875 45.0869 16.8402 45.0866 16.7933C45.0863 16.7462 47.6061 13.0241 50.6862 8.52158C53.7663 4.01909 56.2863 0.31001 56.2863 0.278967C56.2863 0.248027 47.5696 0.222656 36.9159 0.222656H17.5455L17.5723 4.42533Z" fill="white"/>
<path fill-rule="evenodd" clip-rule="evenodd" d="M35.2438 27.6581C34.0339 27.9761 33.1247 28.5147 32.1855 29.4694L31.3585 30.3099L30.4047 29.2924C29.1711 27.9764 29.0914 27.9671 28.1009 29.0226C24.9976 32.3292 24.1835 35.3267 25.6356 38.1002C26.039 38.8706 27.1823 40.1678 28.0298 40.8164L28.5425 41.2089V42.3062C28.5425 43.515 28.6455 43.7449 29.187 43.7449C29.6479 43.7449 29.7756 43.4189 29.7756 42.2417V41.197L30.3907 40.7119C30.729 40.4451 31.2911 39.907 31.6399 39.5161L32.2739 38.8054L32.7386 39.216C33.3325 39.7407 34.4563 40.2925 35.3757 40.5108C35.7713 40.6048 36.1529 40.6965 36.2234 40.7146C36.3182 40.7389 36.3519 41.1089 36.3519 42.1225C36.3519 43.6069 36.3967 43.7449 36.8789 43.7449C37.4161 43.7449 37.4822 43.5578 37.4822 42.0359V40.6509H37.7797C38.1672 40.6509 39.3555 40.281 39.9691 39.9696C40.2348 39.8347 40.7005 39.5213 41.0038 39.2732L41.5555 38.8222L42.2482 39.5808C42.6292 39.9979 43.1923 40.5364 43.4997 40.7773L44.0585 41.2154V42.2509C44.0585 43.4408 44.184 43.7449 44.675 43.7449C45.1678 43.7449 45.2916 43.4419 45.2916 42.2353V41.1841L45.7796 40.8244C46.4717 40.3143 47.4599 39.2541 47.944 38.5024C49.7022 35.7721 48.9707 32.4866 45.8827 29.2448C44.6613 27.9623 44.6845 27.9616 43.3976 29.3199C42.8531 29.8948 42.3946 30.3473 42.3788 30.3255C40.667 27.9789 37.9237 26.9532 35.2438 27.6581ZM33.0737 30.2327C33.752 29.5412 35.0459 28.8465 35.9409 28.6933C36.6364 28.5742 37.7794 28.6417 38.4375 28.8408C41.743 29.8406 43.29 33.5926 41.6663 36.6718C41.2439 37.4725 40.2763 38.4448 39.4859 38.8623C38.9265 39.1579 38.6248 39.2621 37.7648 39.4565L37.4822 39.5203V36.7019C37.4822 33.6469 37.4586 33.5089 36.935 33.5089C36.3534 33.5089 36.3519 33.5169 36.3519 36.5726C36.3519 38.1161 36.3259 39.405 36.294 39.437C36.1808 39.5507 34.9739 39.1966 34.3657 38.8712C32.6052 37.9294 31.5308 36.1229 31.5251 34.0949C31.5207 32.5512 32.0194 31.3072 33.0737 30.2327ZM27.3618 31.833C27.662 31.3792 28.1699 30.7179 28.4906 30.3633C28.8112 30.0089 29.1147 29.7188 29.165 29.7188C29.2154 29.7188 29.5836 30.1016 29.9833 30.5696C30.78 31.5021 30.7488 31.3641 30.4561 32.6581C30.1205 34.1422 30.3397 35.7773 31.0624 37.1819L31.4266 37.8897L30.9989 38.4463C30.7636 38.7523 30.4036 39.1504 30.199 39.3308L29.827 39.6588L29.7756 36.7773C29.7473 35.1923 29.6847 33.8344 29.6366 33.7595C29.4248 33.4301 28.8468 33.4431 28.6211 33.7822C28.5796 33.8446 28.545 35.1836 28.5441 36.7576C28.5432 38.3986 28.5027 39.6195 28.4494 39.6195C28.2443 39.6195 27.007 38.1383 26.6627 37.4806C25.7426 35.7232 25.9623 33.9481 27.3618 31.833ZM43.1292 31.7729C43.0243 31.5761 43.29 31.1637 44.1036 30.2602C44.3719 29.9625 44.6239 29.7188 44.6637 29.7188C44.9501 29.7188 46.5163 31.7817 47.0412 32.8502C47.7773 34.349 47.9037 35.6443 47.4362 36.8985C47.1859 37.5696 46.3836 38.7221 45.795 39.256L45.3429 39.666L45.2916 36.7457C45.2403 33.8298 45.2399 33.8253 44.9976 33.6285C44.6946 33.3825 44.6612 33.3833 44.3293 33.6453L44.0585 33.859V36.7393C44.0585 38.3589 44.0183 39.6195 43.9668 39.6195C43.8613 39.6195 42.7919 38.4807 42.5512 38.112C42.3987 37.8783 42.4097 37.8265 42.7519 37.1693C43.4827 35.7657 43.6986 34.3078 43.3969 32.8134C43.3007 32.3369 43.1803 31.8687 43.1292 31.7729Z" fill="white"/>
<path d="M20.5482 45.2094C20.3736 45.3846 20.3953 45.8662 20.5863 46.0581C20.7318 46.204 22.3633 46.2201 37.0112 46.2201C52.6364 46.2201 53.2813 46.2127 53.4446 46.0314C53.659 45.7938 53.6627 45.4578 53.4533 45.2476C53.3078 45.1017 51.672 45.0856 36.9817 45.0856C24.4329 45.0856 20.643 45.1142 20.5482 45.2094Z" fill="white"/>
<path d="M20.8004 47.8526C20.664 48.004 20.6304 48.2646 20.6304 49.1736C20.6304 50.369 20.6967 50.5771 21.1167 50.7023C21.2841 50.7523 21.4163 50.7005 21.6048 50.5112C21.8477 50.2674 21.8634 50.187 21.8634 49.187C21.8634 48.3903 21.8232 48.0647 21.7035 47.8932C21.506 47.6101 21.038 47.5891 20.8004 47.8526Z" fill="white"/>
<path d="M23.0524 47.826C22.9133 47.9657 22.891 48.3922 22.891 50.92C22.891 53.7145 22.9007 53.8616 23.0965 54.0582C23.3438 54.3064 23.4911 54.3161 23.7929 54.1039C24.0201 53.9442 24.0213 53.9271 24.0213 50.9274C24.0213 48.7192 23.9883 47.8784 23.898 47.7877C23.7234 47.6125 23.2435 47.6342 23.0524 47.826Z" fill="white"/>
<path d="M25.2568 47.8657C25.1857 47.9989 25.1584 49.4583 25.1761 52.1676L25.203 56.2677L25.4737 56.4202C25.7166 56.557 25.7721 56.5545 26.0132 56.3959L26.2819 56.2192V52.0654C26.2819 48.9721 26.2505 47.8799 26.1586 47.7877C25.9567 47.585 25.3798 47.6349 25.2568 47.8657Z" fill="white"/>
<path d="M27.5355 47.7877C27.3579 47.966 27.3579 57.7783 27.5355 57.9566C27.7101 58.1319 28.19 58.1101 28.3811 57.9184C28.5233 57.7756 28.5425 57.1782 28.5425 52.9096C28.5425 49.7659 28.5051 47.9928 28.4362 47.8634C28.3142 47.6348 27.7363 47.5862 27.5355 47.7877Z" fill="white"/>
<path d="M29.7961 47.7877C29.6183 47.9662 29.6183 58.9126 29.7961 59.0911C29.9707 59.2663 30.4506 59.2446 30.6417 59.0528C30.7844 58.9096 30.8031 58.2577 30.8031 53.4394C30.8031 48.6211 30.7844 47.9692 30.6417 47.826C30.4506 47.6342 29.9707 47.6125 29.7961 47.7877Z" fill="white"/>
<path d="M31.9907 47.8932C31.8505 48.0939 31.8307 48.8291 31.8307 53.8094C31.8307 59.4067 31.8341 59.5007 32.0437 59.7682C32.2978 60.0925 32.5779 60.115 32.8582 59.8337C33.0589 59.6322 33.0637 59.4899 33.0637 53.8164C33.0637 48.3177 33.0537 47.9961 32.8758 47.8346C32.6076 47.591 32.1819 47.6192 31.9907 47.8932Z" fill="white"/>
<path d="M34.2513 47.8932C34.111 48.0941 34.0913 48.85 34.0913 54.0296C34.0913 59.7993 34.0961 59.9416 34.2968 60.1431C34.4098 60.2565 34.5948 60.3493 34.7078 60.3493C34.8208 60.3493 35.0058 60.2565 35.1188 60.1431C35.3196 59.9415 35.3243 59.7993 35.3243 53.9711C35.3243 48.3225 35.3144 47.9962 35.1364 47.8346C34.8682 47.591 34.4425 47.6192 34.2513 47.8932Z" fill="white"/>
<path d="M36.5219 47.8526C36.3678 48.0235 36.3519 48.5976 36.3519 53.966C36.3519 59.1615 36.3716 59.9192 36.5119 60.1201C36.7115 60.4063 37.1067 60.4168 37.3794 60.1431C37.5801 59.9416 37.5849 59.7993 37.5849 54.0296C37.5849 48.85 37.5652 48.0941 37.425 47.8932C37.2275 47.6101 36.7595 47.5891 36.5219 47.8526Z" fill="white"/>
<path d="M38.7795 47.8204C38.6291 47.9714 38.6125 48.5872 38.6125 53.998C38.6125 59.6894 38.6225 60.017 38.8004 60.1786C39.0309 60.388 39.33 60.3972 39.5947 60.203C39.7876 60.0615 39.795 59.8622 39.8197 54.1439C39.8396 49.5241 39.8167 48.1748 39.7145 47.9733C39.5537 47.6558 39.0291 47.57 38.7795 47.8204Z" fill="white"/>
<path d="M40.9794 47.8634C40.9098 47.9941 40.8731 50.0504 40.8731 53.8254C40.8731 60.0569 40.8647 59.9626 41.4203 59.9626C42.0301 59.9626 42.0034 60.2449 42.0034 53.8084C42.0034 49.3593 41.9731 47.881 41.8801 47.7877C41.6793 47.5862 41.1014 47.6348 40.9794 47.8634Z" fill="white"/>
<path d="M43.257 47.7877C43.1642 47.8808 43.1337 49.2669 43.1337 53.3925C43.1337 58.5714 43.1441 58.8829 43.3216 59.0442C43.5682 59.2681 43.8825 59.2608 44.094 59.0262C44.2477 58.8559 44.264 58.3185 44.264 53.4503C44.264 49.9339 44.227 47.9937 44.1577 47.8634C44.0357 47.6348 43.4578 47.5862 43.257 47.7877Z" fill="white"/>
<path d="M45.5176 47.7877C45.4251 47.8805 45.3943 49.1409 45.3943 52.8252C45.3943 57.4547 45.4052 57.7489 45.5823 57.9097C45.8167 58.1228 46.0039 58.1254 46.2962 57.9198L46.5246 57.7593V52.9112C46.5246 49.7663 46.4872 47.9928 46.4183 47.8634C46.2963 47.6348 45.7184 47.5862 45.5176 47.7877Z" fill="white"/>
<path d="M47.7122 47.8932C47.5743 48.0907 47.5522 48.6548 47.5522 51.9737C47.5522 55.7936 47.5795 56.1355 47.9015 56.3514C48.1019 56.4856 48.3691 56.4354 48.5797 56.224C48.7781 56.0248 48.7852 55.8803 48.7852 52.0029C48.7852 48.4906 48.765 47.9678 48.6238 47.826C48.3841 47.5855 47.9021 47.6209 47.7122 47.8932Z" fill="white"/>
<path d="M49.9728 47.8932C49.7416 48.2245 49.7336 53.4862 49.9637 53.8161C50.1824 54.1294 50.4878 54.1744 50.7877 53.9376L51.0458 53.7338V50.8695C51.0458 48.2257 51.0313 47.9922 50.8579 47.8346C50.5897 47.591 50.164 47.6192 49.9728 47.8932Z" fill="white"/>
<path d="M52.2434 47.8526C52.109 48.0017 52.0737 48.2554 52.0749 49.0644C52.0767 50.1585 52.1016 50.248 52.4587 50.4367C52.7276 50.5789 53.0336 50.458 53.2013 50.1436C53.374 49.8197 53.3336 48.1612 53.1465 47.8932C52.949 47.6101 52.481 47.5891 52.2434 47.8526Z" fill="white"/>
</svg>
