<svg width="40" height="47" viewBox="0 0 40 47" fill="none" xmlns="http://www.w3.org/2000/svg">
<path d="M5.83301 27.0127H34.167C35.6668 27.0128 37.1055 27.6084 38.166 28.6689C39.2265 29.7296 39.8223 31.1681 39.8223 32.668V33.7793C39.8223 37.2483 35.3069 46.6572 20 46.6572C4.69306 46.6572 0.177734 37.25 0.177734 33.7793V32.668C0.177734 31.1681 0.773464 29.7296 1.83398 28.6689C2.89453 27.6084 4.33318 27.0128 5.83301 27.0127ZM5.83301 28.3232C4.68106 28.3233 3.57635 28.7812 2.76172 29.5957C1.94698 30.4104 1.48926 31.5158 1.48926 32.668V33.7793C1.48926 36.4198 5.30812 45.3457 20 45.3457C34.6919 45.3457 38.5107 36.4198 38.5107 33.7793V32.668C38.5107 31.5158 38.053 30.4104 37.2383 29.5957C36.4236 28.7812 35.3189 28.3233 34.167 28.3232H5.83301ZM20 0.345703C23.047 0.345703 25.9694 1.55635 28.124 3.71094C30.2785 5.86551 31.4893 8.78799 31.4893 11.835C31.4892 14.8819 30.2785 17.8045 28.124 19.959C25.9695 22.1135 23.047 23.3232 20 23.3232C16.953 23.3232 14.0305 22.1135 11.876 19.959C9.72147 17.8045 8.51083 14.8819 8.51074 11.835C8.51074 8.78799 9.72149 5.86551 11.876 3.71094C14.0306 1.55635 16.953 0.345703 20 0.345703ZM20 1.65723C17.3008 1.65723 14.7124 2.7292 12.8037 4.6377C10.895 6.5464 9.82227 9.13565 9.82227 11.835C9.82235 14.5342 10.8951 17.1226 12.8037 19.0312C14.7124 20.9399 17.3008 22.0127 20 22.0127C22.6992 22.0127 25.2876 20.9399 27.1963 19.0312C29.1049 17.1226 30.1776 14.5342 30.1777 11.835C30.1777 9.13565 29.105 6.5464 27.1963 4.6377C25.2876 2.7292 22.6992 1.65723 20 1.65723Z" fill="#007D21" stroke="white" stroke-width="0.355556"/>
</svg>
