<svg width="46" height="46" viewBox="0 0 46 46" fill="none" xmlns="http://www.w3.org/2000/svg">
<path d="M4.92871 29.7031H23C24.2723 29.7031 25.4929 30.2078 26.3926 31.1074C27.2922 32.0071 27.7969 33.2277 27.7969 34.5V35.3213C27.7969 36.2808 27.3447 38.9053 25.3818 41.3037C23.3885 43.7377 19.9 45.8682 13.9639 45.8682C8.02772 45.8681 4.53751 43.7377 2.5459 41.3037C0.584692 38.9053 0.131836 36.2807 0.131836 35.3213V34.5C0.131836 33.2277 0.636494 32.0071 1.53613 31.1074C2.43576 30.2078 3.65646 29.7031 4.92871 29.7031ZM4.92871 31.083C4.02246 31.083 3.15353 31.4432 2.5127 32.084C1.87186 32.7248 1.51172 33.5937 1.51172 34.5V35.3213C1.51172 36.0048 1.88082 38.3093 3.61426 40.4287C5.31736 42.5125 8.40061 44.4882 13.9639 44.4883C19.5275 44.4883 22.6097 42.5125 24.3145 40.4287C26.0496 38.3093 26.417 36.0047 26.417 35.3213V34.5C26.417 33.5937 26.0569 32.7248 25.416 32.084C24.7752 31.4431 23.9063 31.083 23 31.083H4.92871ZM13.9639 9.98828C16.1076 9.98828 18.1639 10.8406 19.6797 12.3564C21.1954 13.8722 22.0468 15.9277 22.0469 18.0713C22.0469 20.215 21.1955 22.2713 19.6797 23.7871C18.1639 25.3029 16.1075 26.1543 13.9639 26.1543C11.8204 26.1542 9.76473 25.3027 8.24902 23.7871C6.73319 22.2713 5.88184 20.215 5.88184 18.0713C5.88187 15.9277 6.73331 13.8722 8.24902 12.3564C9.76475 10.8407 11.8203 9.98839 13.9639 9.98828ZM13.9639 11.3682C12.1863 11.3683 10.4815 12.0751 9.22461 13.332C7.9677 14.589 7.26176 16.2937 7.26172 18.0713C7.26172 19.849 7.96758 21.5545 9.22461 22.8115C10.4815 24.0683 12.1864 24.7743 13.9639 24.7744C15.7415 24.7744 17.4471 24.0685 18.7041 22.8115C19.9611 21.5545 20.667 19.849 20.667 18.0713C20.667 16.2937 19.961 14.589 18.7041 13.332C17.4471 12.075 15.7416 11.3682 13.9639 11.3682ZM27.9287 1.51172C27.0224 1.51172 26.1535 1.87186 25.5127 2.5127C24.8719 3.15353 24.5117 4.02243 24.5117 4.92871V13.1426C24.5117 14.0489 24.8719 14.9187 25.5127 15.5596C26.1535 16.2001 27.0226 16.5596 27.9287 16.5596H28.75C28.933 16.5596 29.1089 16.6323 29.2383 16.7617C29.3677 16.8911 29.4404 17.067 29.4404 17.25V20.5244C29.4404 20.7157 29.4978 20.9024 29.6055 21.0605C29.7132 21.2188 29.8658 21.341 30.0439 21.4111C30.222 21.4812 30.4169 21.4964 30.6035 21.4541C30.7902 21.4118 30.9604 21.314 31.0908 21.1738L31.0898 21.1729L35.1904 16.7793C35.255 16.71 35.334 16.6549 35.4209 16.6172C35.5077 16.5795 35.6016 16.5595 35.6963 16.5596H41.0713C41.9774 16.5596 42.8465 16.2001 43.4873 15.5596C44.1281 14.9187 44.4883 14.0489 44.4883 13.1426V4.92871C44.4883 4.02243 44.1281 3.15353 43.4873 2.5127C42.8465 1.87186 41.9776 1.51172 41.0713 1.51172H27.9287ZM28.0596 17.9404H27.9287C26.6564 17.9404 25.4358 17.4348 24.5361 16.5352C23.6365 15.6355 23.1318 14.4148 23.1318 13.1426V4.92871C23.1318 3.65643 23.6365 2.43577 24.5361 1.53613C25.4358 0.636494 26.6564 0.131836 27.9287 0.131836H41.0713C42.3436 0.131836 43.5642 0.636495 44.4639 1.53613C45.3635 2.43577 45.8682 3.65643 45.8682 4.92871V13.1426C45.8682 14.4148 45.3635 15.6355 44.4639 16.5352C43.5642 17.4348 42.3436 17.9404 41.0713 17.9404H35.9951L35.9561 17.9814L32.0986 22.1172C30.6538 23.664 28.0597 22.6408 28.0596 20.5244V17.9404Z" fill="#007D21" stroke="white" stroke-width="0.262857"/>
</svg>
