<svg width="46" height="50" viewBox="0 0 46 50" fill="none" xmlns="http://www.w3.org/2000/svg">
<mask id="path-1-inside-1_2155_7100" fill="white">
<path d="M23 0.402344C21.8175 0.402344 20.6425 0.799679 19.6302 1.52623L16.497 3.71347L12.8869 4.18648H12.8282L12.7696 4.24514C11.5852 4.51168 10.5008 5.10886 9.64235 5.96729C8.78393 6.82571 8.18674 7.91013 7.9202 9.09451L7.86344 9.15317V9.21182L7.39042 12.8787L5.20319 15.7168L5.14264 15.7754V15.8341C3.82009 17.9475 3.76143 20.6759 5.20319 22.6928L7.44908 25.8261L8.0413 29.0804L1.95072 38.361L0 41.2597H9.04599L11.2332 46.3437L12.5936 49.5962L14.5443 46.6389L20.5157 37.6515C22.1202 38.31 23.9309 38.3705 25.4843 37.6515L31.4557 46.6389L33.4064 49.5962L34.7668 46.3437L36.954 41.2597H46L44.0493 38.361L38.1366 29.3756L38.6096 25.828L40.7968 22.6947L40.8574 22.6361V22.5774C42.1799 20.464 42.2386 17.7942 40.7968 15.7773L38.6096 12.6421L37.9 9.09451H37.9587C37.9511 9.0491 37.9076 9.01883 37.9 8.97531C37.5595 6.50048 35.6012 4.49111 33.1112 4.18648H33.0507L29.503 3.71347L26.3698 1.52623C25.3914 0.808906 24.2131 0.415893 23 0.402344ZM23 4.24514C23.4352 4.24514 23.8647 4.37758 24.1825 4.60085L27.5523 7.02459L27.9667 7.31975L28.4397 7.3803L32.5795 7.97062H32.6363C33.4877 8.06523 34.0781 8.65744 34.1746 9.50888V9.62618L34.9446 13.8247L35.0014 14.239L35.2985 14.5929L37.7222 17.9626C38.1744 18.5908 38.2331 19.656 37.6635 20.5642L35.0033 24.2897L34.9427 24.7627L34.3524 28.9026V28.9594C34.3205 29.2549 34.2194 29.5389 34.0573 29.7881L33.9381 29.8486V29.9054C33.6569 30.2431 33.2536 30.456 32.8161 30.4976H32.6969L28.381 31.2677L27.908 31.3244L27.5523 31.6215L24.1825 34.0452C23.5544 34.4974 22.4305 34.5561 21.5223 33.9866L18.4477 31.6215L18.092 31.3263L17.5603 31.2658L13.4205 30.6755H13.3637C13.0964 30.6511 12.8387 30.5631 12.6123 30.419C12.3859 30.2748 12.1972 30.0786 12.0619 29.8467C11.9367 29.6283 11.8563 29.3871 11.8254 29.1372V29.0199L11.0573 24.7041L10.9967 24.2311L10.7015 23.8754L8.27781 20.5056C7.8256 19.8774 7.76695 18.7535 8.33646 17.8453L10.7015 14.7707L10.9967 14.415L11.0554 13.8833L11.5889 9.92135C11.5965 9.89297 11.64 9.89297 11.6476 9.86269C11.7666 9.40775 12.0046 8.99271 12.3371 8.66019C12.6697 8.32767 13.0847 8.08966 13.5397 7.97062C13.5699 7.96305 13.5699 7.91954 13.5983 7.91197L17.5603 7.3784L18.0333 7.32164L18.4477 7.02459L21.8175 4.60085C22.1353 4.37947 22.5648 4.24514 23 4.24514ZM36.0666 33.0405L38.9653 37.4756H34.4092L33.9362 38.6581L32.6363 41.6722L28.6157 35.5229L29.5012 34.874L33.2285 34.2231V34.2817C33.272 34.2742 33.3004 34.2307 33.3458 34.2231C34.3417 34.0794 35.2825 33.671 36.0666 33.0405ZM9.93337 33.0992C10.7549 33.8461 11.7871 34.3212 12.8888 34.4596H12.9474L16.5556 34.9326L17.3824 35.5835L13.3618 41.6722L12.0619 38.6581L11.5889 37.4756H7.03661L9.93337 33.0992Z"/>
</mask>
<path d="M23 0.402344C21.8175 0.402344 20.6425 0.799679 19.6302 1.52623L16.497 3.71347L12.8869 4.18648H12.8282L12.7696 4.24514C11.5852 4.51168 10.5008 5.10886 9.64235 5.96729C8.78393 6.82571 8.18674 7.91013 7.9202 9.09451L7.86344 9.15317V9.21182L7.39042 12.8787L5.20319 15.7168L5.14264 15.7754V15.8341C3.82009 17.9475 3.76143 20.6759 5.20319 22.6928L7.44908 25.8261L8.0413 29.0804L1.95072 38.361L0 41.2597H9.04599L11.2332 46.3437L12.5936 49.5962L14.5443 46.6389L20.5157 37.6515C22.1202 38.31 23.9309 38.3705 25.4843 37.6515L31.4557 46.6389L33.4064 49.5962L34.7668 46.3437L36.954 41.2597H46L44.0493 38.361L38.1366 29.3756L38.6096 25.828L40.7968 22.6947L40.8574 22.6361V22.5774C42.1799 20.464 42.2386 17.7942 40.7968 15.7773L38.6096 12.6421L37.9 9.09451H37.9587C37.9511 9.0491 37.9076 9.01883 37.9 8.97531C37.5595 6.50048 35.6012 4.49111 33.1112 4.18648H33.0507L29.503 3.71347L26.3698 1.52623C25.3914 0.808906 24.2131 0.415893 23 0.402344ZM23 4.24514C23.4352 4.24514 23.8647 4.37758 24.1825 4.60085L27.5523 7.02459L27.9667 7.31975L28.4397 7.3803L32.5795 7.97062H32.6363C33.4877 8.06523 34.0781 8.65744 34.1746 9.50888V9.62618L34.9446 13.8247L35.0014 14.239L35.2985 14.5929L37.7222 17.9626C38.1744 18.5908 38.2331 19.656 37.6635 20.5642L35.0033 24.2897L34.9427 24.7627L34.3524 28.9026V28.9594C34.3205 29.2549 34.2194 29.5389 34.0573 29.7881L33.9381 29.8486V29.9054C33.6569 30.2431 33.2536 30.456 32.8161 30.4976H32.6969L28.381 31.2677L27.908 31.3244L27.5523 31.6215L24.1825 34.0452C23.5544 34.4974 22.4305 34.5561 21.5223 33.9866L18.4477 31.6215L18.092 31.3263L17.5603 31.2658L13.4205 30.6755H13.3637C13.0964 30.6511 12.8387 30.5631 12.6123 30.419C12.3859 30.2748 12.1972 30.0786 12.0619 29.8467C11.9367 29.6283 11.8563 29.3871 11.8254 29.1372V29.0199L11.0573 24.7041L10.9967 24.2311L10.7015 23.8754L8.27781 20.5056C7.8256 19.8774 7.76695 18.7535 8.33646 17.8453L10.7015 14.7707L10.9967 14.415L11.0554 13.8833L11.5889 9.92135C11.5965 9.89297 11.64 9.89297 11.6476 9.86269C11.7666 9.40775 12.0046 8.99271 12.3371 8.66019C12.6697 8.32767 13.0847 8.08966 13.5397 7.97062C13.5699 7.96305 13.5699 7.91954 13.5983 7.91197L17.5603 7.3784L18.0333 7.32164L18.4477 7.02459L21.8175 4.60085C22.1353 4.37947 22.5648 4.24514 23 4.24514ZM36.0666 33.0405L38.9653 37.4756H34.4092L33.9362 38.6581L32.6363 41.6722L28.6157 35.5229L29.5012 34.874L33.2285 34.2231V34.2817C33.272 34.2742 33.3004 34.2307 33.3458 34.2231C34.3417 34.0794 35.2825 33.671 36.0666 33.0405ZM9.93337 33.0992C10.7549 33.8461 11.7871 34.3212 12.8888 34.4596H12.9474L16.5556 34.9326L17.3824 35.5835L13.3618 41.6722L12.0619 38.6581L11.5889 37.4756H7.03661L9.93337 33.0992Z" fill="#007D21" stroke="white" stroke-width="2.82549" mask="url(#path-1-inside-1_2155_7100)"/>
</svg>
