<svg width="60" height="60" viewBox="0 0 60 60" fill="none" xmlns="http://www.w3.org/2000/svg">
<path d="M11.9287 33.46H30C31.2607 33.46 32.4699 33.9611 33.3613 34.8525C34.2526 35.7439 34.7529 36.9533 34.7529 38.2139C34.7528 39.9505 34.1243 42.2933 32.1768 44.2451L31.9844 44.4326C29.8818 46.4257 26.4171 47.8955 20.9629 47.8955C15.5087 47.8955 12.047 46.4241 9.94434 44.4326C7.84556 42.445 7.17491 40.0065 7.1748 38.2139C7.1748 36.9533 7.67605 35.7439 8.56738 34.8525C9.45881 33.9611 10.668 33.46 11.9287 33.46ZM11.9287 34.7529C11.0108 34.7529 10.1305 35.1175 9.48145 35.7666C8.83248 36.4156 8.46777 37.296 8.46777 38.2139C8.46788 39.7069 9.02968 41.7858 10.832 43.4941C12.631 45.1973 15.7414 46.6025 20.9639 46.6025C26.1866 46.6025 29.2976 45.1991 31.0967 43.4941C32.899 41.7858 33.4608 39.7069 33.4609 38.2139C33.4609 37.2961 33.0962 36.4156 32.4473 35.7666C31.7982 35.1175 30.9179 34.7529 30 34.7529H11.9287ZM48.8926 33.46C49.9352 33.46 50.9355 33.8742 51.6729 34.6113C52.4101 35.3486 52.8251 36.3489 52.8252 37.3916C52.8252 38.3865 52.3439 40.2032 50.6689 41.7656C48.9794 43.3428 46.1365 44.6094 41.5 44.6094C39.2834 44.6094 37.4775 44.3164 36.0127 43.8428C36.2385 43.4556 36.4362 43.0666 36.6074 42.6758C37.8958 43.0677 39.5013 43.3174 41.5 43.3174C45.6239 43.3174 48.0775 42.2653 49.5127 41.0645L49.7861 40.8223C51.1915 39.5113 51.5322 38.0412 51.5322 37.3916C51.5321 36.6918 51.2546 36.0203 50.7598 35.5254C50.2648 35.0304 49.5926 34.7529 48.8926 34.7529H36.7314C36.4939 34.2921 36.2096 33.8597 35.8867 33.46H48.8926ZM20.9639 12.1025C23.3138 12.1025 25.5678 13.0366 27.2295 14.6982C28.8912 16.3599 29.8252 18.6139 29.8252 20.9639C29.8251 23.3136 28.891 25.567 27.2295 27.2285C25.5678 28.8902 23.3138 29.8242 20.9639 29.8242C18.6141 29.8241 16.3608 28.8901 14.6992 27.2285C13.0377 25.567 12.1036 23.3137 12.1035 20.9639C12.1035 18.6139 13.0376 16.3599 14.6992 14.6982C16.3608 13.0367 18.6141 12.1026 20.9639 12.1025ZM41.5 17.0312C43.1964 17.0312 44.8229 17.7058 46.0225 18.9053C47.222 20.1048 47.8965 21.7314 47.8965 23.4277C47.8965 25.1241 47.222 26.7507 46.0225 27.9502C44.8229 29.1497 43.1964 29.8242 41.5 29.8242C39.8036 29.8242 38.1771 29.1497 36.9775 27.9502C35.778 26.7507 35.1035 25.1241 35.1035 23.4277C35.1035 21.7314 35.778 20.1048 36.9775 18.9053C38.1771 17.7058 39.8036 17.0312 41.5 17.0312ZM20.9639 13.3955C19.9702 13.3956 18.9864 13.5914 18.0684 13.9717C17.1502 14.352 16.316 14.9096 15.6133 15.6123C14.9105 16.3151 14.353 17.1492 13.9727 18.0674C13.5923 18.9856 13.3965 19.97 13.3965 20.9639C13.3966 22.9709 14.1941 24.8953 15.6133 26.3145C17.0325 27.7336 18.9568 28.5311 20.9639 28.5312C22.9711 28.5312 24.8961 27.7337 26.3154 26.3145C27.7346 24.8953 28.5321 22.9709 28.5322 20.9639C28.5322 19.97 28.3364 18.9856 27.9561 18.0674C27.5757 17.1492 27.0182 16.3151 26.3154 15.6123C25.6127 14.9095 24.7786 14.352 23.8604 13.9717C22.9422 13.5914 21.9577 13.3955 20.9639 13.3955ZM41.5 18.3242C40.1464 18.3242 38.8478 18.8612 37.8906 19.8184C36.9335 20.7755 36.3965 22.0741 36.3965 23.4277C36.3965 24.7813 36.9335 26.08 37.8906 27.0371C38.8478 27.9943 40.1464 28.5312 41.5 28.5312C42.8536 28.5312 44.1522 27.9943 45.1094 27.0371C46.0665 26.08 46.6035 24.7813 46.6035 23.4277C46.6035 22.0741 46.0665 20.7755 45.1094 19.8184C44.1522 18.8612 42.8536 18.3242 41.5 18.3242Z" fill="#007D21" stroke="white" stroke-width="0.350476"/>
</svg>
