<svg width="46" height="48" viewBox="0 0 46 48" fill="none" xmlns="http://www.w3.org/2000/svg">
<path d="M34.1173 1.33496C34.4219 1.33496 34.715 1.45685 34.9318 1.6748L45.0792 11.8906C45.1867 11.9987 45.2718 12.1277 45.3302 12.2695C45.3885 12.4113 45.4191 12.5631 45.4191 12.7168C45.4191 12.8706 45.3886 13.0232 45.3302 13.165C45.2718 13.3067 45.1865 13.435 45.0792 13.543C43.7293 14.9013 41.9581 15.7513 40.0616 15.9521C38.1653 16.153 36.2578 15.6927 34.6573 14.6475L34.2628 14.3906L33.9318 14.7236L23.4327 25.2939L23.0294 25.7002L23.4327 26.1064L28.5509 31.2627C28.7673 31.481 28.8898 31.7777 28.8898 32.0879C28.8898 32.3595 28.7957 32.6208 28.6271 32.8281L28.5509 32.9131L17.7609 43.7754C16.8497 44.6929 15.7682 45.4207 14.5782 45.917C13.3883 46.4133 12.1131 46.6689 10.8253 46.6689C9.53761 46.6689 8.26231 46.4132 7.07239 45.917C5.88236 45.4206 4.8 44.6929 3.88879 43.7754L3.88782 43.7744L3.44739 43.333C2.53654 42.4156 1.81366 41.326 1.32043 40.127C0.82717 38.9277 0.573364 37.642 0.573364 36.3438C0.573387 35.0454 0.827113 33.7598 1.32043 32.5605C1.81377 31.3613 2.53721 30.272 3.44836 29.3545L14.2384 18.4893C14.3457 18.3812 14.4728 18.2956 14.6124 18.2373C14.7521 18.179 14.9019 18.1494 15.0529 18.1494C15.2038 18.1494 15.3536 18.1791 15.4933 18.2373C15.6331 18.2956 15.7609 18.3811 15.8683 18.4893L20.9835 23.6426L21.3927 24.0557L21.8029 23.6426L32.2667 13.1064L32.6027 12.7676L32.3341 12.374C31.2288 10.7579 30.7203 8.80177 30.8976 6.84668C31.0749 4.89199 31.926 3.06218 33.3029 1.6748C33.5196 1.45685 33.8127 1.33497 34.1173 1.33496ZM14.6427 21.374L5.07825 31.0068C4.38168 31.7081 3.83002 32.5412 3.45325 33.457C3.07656 34.3727 2.882 35.3538 2.88196 36.3447C2.88196 37.3358 3.07646 38.3175 3.45325 39.2334C3.83004 40.1493 4.38164 40.9823 5.07825 41.6836L5.52063 42.126C6.92713 43.5412 8.83517 44.3369 10.8253 44.3369C12.8159 44.3369 14.7244 43.5409 16.131 42.125L25.6974 32.4941L26.1007 32.0879L25.6974 31.6807L21.8029 27.7598L21.3937 27.3477L20.9835 27.7598L17.2599 31.5088L17.2531 31.5166L17.2462 31.5234C17.1403 31.6379 17.0125 31.7296 16.8712 31.793C16.7299 31.8563 16.5773 31.8908 16.423 31.8936C16.2687 31.8962 16.1151 31.8678 15.9718 31.8096C15.8284 31.7512 15.6978 31.6642 15.588 31.5537C15.4782 31.4432 15.3915 31.3106 15.3331 31.165C15.2749 31.0197 15.2464 30.8639 15.2491 30.707C15.2519 30.5499 15.2863 30.3943 15.3497 30.251C15.4131 30.108 15.504 29.9794 15.6173 29.873L15.632 29.8584L19.3556 26.1064L19.7599 25.7002L19.3556 25.293L15.4611 21.374L15.0519 20.9619L14.6427 21.374ZM33.798 4.91016C33.2374 6.04644 33.0452 7.33126 33.2482 8.58301C33.4513 9.8349 34.0396 10.9924 34.9308 11.8906H34.9318C35.824 12.7885 36.9746 13.382 38.2208 13.5869C39.4671 13.7918 40.7458 13.5981 41.8761 13.0322L42.589 12.6748L42.0265 12.1094L34.7257 4.75879L34.1554 4.18555L33.798 4.91016Z" fill="#007D21" stroke="white" stroke-width="1.15422"/>
</svg>
