<svg xmlns="http://www.w3.org/2000/svg">
    <symbol id="dots" viewBox="0 0 20 20">
    <path d="M16 11.5C16.8284 11.5 17.5 10.8284 17.5 10C17.5 9.17157 16.8284 8.5 16 8.5C15.1716 8.5 14.5 9.17157 14.5 10C14.5 10.8284 15.1716 11.5 16 11.5Z"/>
    <path d="M10 11.5C10.8284 11.5 11.5 10.8284 11.5 10C11.5 9.17157 10.8284 8.5 10 8.5C9.17157 8.5 8.5 9.17157 8.5 10C8.5 10.8284 9.17157 11.5 10 11.5Z"/>
    <path d="M4 11.5C4.82843 11.5 5.5 10.8284 5.5 10C5.5 9.17157 4.82843 8.5 4 8.5C3.17157 8.5 2.5 9.17157 2.5 10C2.5 10.8284 3.17157 11.5 4 11.5Z"/>
    </symbol>

    <symbol id="arrow-right" fill="none" viewBox="0 0 32 32">
    <path d="M10 16H22" stroke-width="1.5" stroke-linecap="round" stroke-linejoin="round"/>
    <path d="M16.6699 22.6673L23.3366 16.0007L16.6699 9.33398" stroke-width="1.5" stroke-linecap="round" stroke-linejoin="round"/>
    </symbol>

    <symbol id="arrow-left" fill="none" viewBox="0 0 32 32">
    <path d="M22 16H10" stroke-width="1.5" stroke-linecap="round" stroke-linejoin="round"/>
    <path d="M15.3301 22.6673L8.66341 16.0007L15.3301 9.33398" stroke-width="1.5" stroke-linecap="round" stroke-linejoin="round"/>
    </symbol>

    <symbol id="download" fill="none" viewBox="0 0 20 20">
    <path d="M3.3335 14.167V15.8337C3.3335 16.2757 3.50909 16.6996 3.82165 17.0122C4.13421 17.3247 4.55814 17.5003 5.00016 17.5003H15.0002C15.4422 17.5003 15.8661 17.3247 16.1787 17.0122C16.4912 16.6996 16.6668 16.2757 16.6668 15.8337V14.167" stroke-width="1.5" stroke-linejoin="round"/>
    <path d="M5.8335 9.16699L10.0002 13.3337L14.1668 9.16699" stroke-width="1.5" stroke-linejoin="round"/>
    <path d="M10 3.33301V13.333" stroke-width="1.5" stroke-linejoin="round"/>
    </symbol>

    <symbol id="sheet" fill="none" viewBox="0 0 14 14">
    <path d="M1 13.3327C1.13733 12.666 1.796 11.1327 3.33333 10.3327M6 4.66602C8.795 3.95935 11.8883 1.74602 13 0.666016C13 5.66602 11.733 8.49002 11 9.33268C7.66667 13.166 4.02167 11.386 3.33333 9.99935C1.715 6.74035 4.02333 5.16602 6 4.66602Z" stroke="white" stroke-width="1.2" stroke-linecap="round" stroke-linejoin="round"/>
    </symbol>

    <symbol id="flower" fill="none" viewBox="0 0 18 20">
    <mask id="path-1-inside-1_1_1354" fill="white">
    <path d="M9 0.0759277L9.455 0.308928C11.2158 1.2102 12.7276 2.53106 13.857 4.15493C14.7986 3.70868 15.7943 3.38698 16.819 3.19793L18 2.97993V10.9999C18 13.3869 17.0518 15.6761 15.364 17.3639C13.6761 19.0517 11.3869 19.9999 9 19.9999C6.61305 19.9999 4.32387 19.0517 2.63604 17.3639C0.948211 15.6761 3.55683e-08 13.3869 0 10.9999V2.97993L1.18 3.19793C2.221 3.38793 3.215 3.71393 4.143 4.15493C5.27243 2.53106 6.78425 1.2102 8.545 0.308928L9 0.0759277ZM5.878 5.16593C7.10812 6.02853 8.16684 7.11268 9 8.36293C9.83296 7.11196 10.8917 6.02712 12.122 5.16393C11.2916 4.01267 10.2278 3.0494 9 2.33693C7.77214 3.04969 6.70834 4.01331 5.878 5.16493M7.899 10.4329C7.01668 8.71911 5.6601 7.29519 3.991 6.33093C3.36107 5.96809 2.69346 5.67503 2 5.45693V10.9999C2 14.2899 4.27 17.0499 7.329 17.7999C7.1097 16.8828 6.99927 15.9429 7 14.9999C7 13.3829 7.319 11.8399 7.899 10.4329ZM9.454 17.9859C11.2283 17.8706 12.8922 17.0844 14.108 15.7869C15.3237 14.4895 16.0002 12.778 16 10.9999V5.45693C13.9695 6.0955 12.1957 7.36535 10.9367 9.08169C9.6777 10.798 8.99923 12.8713 9 14.9999C9 16.0419 9.16 17.0439 9.454 17.9859Z"/>
    </mask>
    <path d="M9 0.0759277L9.455 0.308928C11.2158 1.2102 12.7276 2.53106 13.857 4.15493C14.7986 3.70868 15.7943 3.38698 16.819 3.19793L18 2.97993V10.9999C18 13.3869 17.0518 15.6761 15.364 17.3639C13.6761 19.0517 11.3869 19.9999 9 19.9999C6.61305 19.9999 4.32387 19.0517 2.63604 17.3639C0.948211 15.6761 3.55683e-08 13.3869 0 10.9999V2.97993L1.18 3.19793C2.221 3.38793 3.215 3.71393 4.143 4.15493C5.27243 2.53106 6.78425 1.2102 8.545 0.308928L9 0.0759277ZM5.878 5.16593C7.10812 6.02853 8.16684 7.11268 9 8.36293C9.83296 7.11196 10.8917 6.02712 12.122 5.16393C11.2916 4.01267 10.2278 3.0494 9 2.33693C7.77214 3.04969 6.70834 4.01331 5.878 5.16493M7.899 10.4329C7.01668 8.71911 5.6601 7.29519 3.991 6.33093C3.36107 5.96809 2.69346 5.67503 2 5.45693V10.9999C2 14.2899 4.27 17.0499 7.329 17.7999C7.1097 16.8828 6.99927 15.9429 7 14.9999C7 13.3829 7.319 11.8399 7.899 10.4329ZM9.454 17.9859C11.2283 17.8706 12.8922 17.0844 14.108 15.7869C15.3237 14.4895 16.0002 12.778 16 10.9999V5.45693C13.9695 6.0955 12.1957 7.36535 10.9367 9.08169C9.6777 10.798 8.99923 12.8713 9 14.9999C9 16.0419 9.16 17.0439 9.454 17.9859Z" fill="white"/>
    <path d="M9 0.0759277L9.18232 -0.280105L9 -0.373469L8.81768 -0.280105L9 0.0759277ZM9.455 0.308928L9.27268 0.664961L9.27274 0.664992L9.455 0.308928ZM13.857 4.15493L13.5286 4.38332L13.7221 4.66151L14.0283 4.51639L13.857 4.15493ZM16.819 3.19793L16.8916 3.59129L16.8916 3.59128L16.819 3.19793ZM18 2.97993H18.4V2.49933L17.9274 2.58657L18 2.97993ZM18 10.9999H18.4H18ZM9 19.9999V19.5999V19.9999ZM0 10.9999H-0.4H0ZM0 2.97993L0.0726686 2.58658L-0.4 2.49926V2.97993H0ZM1.18 3.19793L1.10733 3.59127L1.10818 3.59143L1.18 3.19793ZM4.143 4.15493L3.97131 4.51621L4.27769 4.66181L4.47138 4.38332L4.143 4.15493ZM8.545 0.308928L8.72726 0.664992L8.72732 0.664961L8.545 0.308928ZM9 8.36293L8.66714 8.58474L9.00013 9.08444L9.33294 8.58462L9 8.36293ZM12.122 5.16393L12.3517 5.49137L12.6835 5.25861L12.4464 4.92992L12.122 5.16393ZM9 2.33693L9.20076 1.99096L8.99997 1.87444L8.79919 1.99099L9 2.33693ZM7.899 10.4329L8.26881 10.5854L8.33932 10.4143L8.25464 10.2498L7.899 10.4329ZM3.991 6.33093L4.19109 5.98457L4.19065 5.98431L3.991 6.33093ZM2 5.45693L2.12001 5.07535L1.6 4.91181V5.45693H2ZM7.329 17.7999L7.23375 18.1884L7.8705 18.3445L7.71803 17.7069L7.329 17.7999ZM7 14.9999L7.4 15.0002V14.9999H7ZM9.454 17.9859L9.07217 18.1051L9.16592 18.4055L9.47994 18.3851L9.454 17.9859ZM16 10.9999H15.6V11L16 10.9999ZM16 5.45693H16.4V4.91182L15.88 5.07535L16 5.45693ZM9 14.9999H9.4V14.9998L9 14.9999ZM9 0.0759277L8.81768 0.431961L9.27268 0.664961L9.455 0.308928L9.63732 -0.047105L9.18232 -0.280105L9 0.0759277ZM9.455 0.308928L9.27274 0.664992C10.975 1.53635 12.4367 2.81336 13.5286 4.38332L13.857 4.15493L14.1854 3.92653C13.0185 2.24876 11.4565 0.884054 9.63726 -0.0471369L9.455 0.308928ZM13.857 4.15493L14.0283 4.51639C14.9385 4.08502 15.901 3.77404 16.8916 3.59129L16.819 3.19793L16.7464 2.80457C15.6876 2.99992 14.6587 3.33235 13.6857 3.79347L13.857 4.15493ZM16.819 3.19793L16.8916 3.59128L18.0726 3.37328L18 2.97993L17.9274 2.58657L16.7464 2.80457L16.819 3.19793ZM18 2.97993H17.6V10.9999H18H18.4V2.97993H18ZM18 10.9999H17.6C17.6 13.2808 16.6939 15.4682 15.0811 17.081L15.364 17.3639L15.6468 17.6467C17.4096 15.8839 18.4 13.493 18.4 10.9999H18ZM15.364 17.3639L15.0811 17.081C13.4683 18.6939 11.2809 19.5999 9 19.5999V19.9999V20.3999C11.493 20.3999 13.884 19.4096 15.6468 17.6467L15.364 17.3639ZM9 19.9999V19.5999C6.71914 19.5999 4.53169 18.6939 2.91888 17.081L2.63604 17.3639L2.3532 17.6467C4.11604 19.4096 6.50697 20.3999 9 20.3999V19.9999ZM2.63604 17.3639L2.91888 17.081C1.30607 15.4682 0.4 13.2808 0.4 10.9999H0H-0.4C-0.4 13.493 0.590354 15.8839 2.3532 17.6467L2.63604 17.3639ZM0 10.9999H0.4V2.97993H0H-0.4V10.9999H0ZM0 2.97993L-0.0726686 3.37327L1.10733 3.59127L1.18 3.19793L1.25267 2.80458L0.0726686 2.58658L0 2.97993ZM1.18 3.19793L1.10818 3.59143C2.11385 3.77498 3.07433 4.08995 3.97131 4.51621L4.143 4.15493L4.31469 3.79365C3.35567 3.33791 2.32815 3.00088 1.25182 2.80443L1.18 3.19793ZM4.143 4.15493L4.47138 4.38332C5.56332 2.81336 7.02495 1.53635 8.72726 0.664992L8.545 0.308928L8.36274 -0.0471369C6.54354 0.884054 4.98154 2.24876 3.81462 3.92653L4.143 4.15493ZM8.545 0.308928L8.72732 0.664961L9.18232 0.431961L9 0.0759277L8.81768 -0.280105L8.36268 -0.047105L8.545 0.308928ZM5.878 5.16593L5.64834 5.49343C6.8378 6.32752 7.86152 7.37583 8.66714 8.58474L9 8.36293L9.33286 8.14111C8.47216 6.84953 7.37844 5.72954 6.10766 4.83842L5.878 5.16593ZM9 8.36293L9.33294 8.58462C10.1384 7.37501 11.1621 6.32603 12.3517 5.49137L12.122 5.16393L11.8923 4.83648C10.6213 5.72821 9.52756 6.84891 8.66706 8.14123L9 8.36293ZM12.122 5.16393L12.4464 4.92992C11.5831 3.73307 10.4772 2.73165 9.20076 1.99096L9 2.33693L8.79924 2.6829C9.97838 3.36715 11 4.29227 11.7976 5.39794L12.122 5.16393ZM9 2.33693L8.79919 1.99099C7.52269 2.73198 6.41676 3.73376 5.55354 4.93099L5.878 5.16493L6.20246 5.39887C6.99991 4.29286 8.02158 3.3674 9.20081 2.68287L9 2.33693ZM7.899 10.4329L8.25464 10.2498C7.33719 8.4678 5.92662 6.98721 4.19109 5.98457L3.991 6.33093L3.79091 6.67728C5.39357 7.60316 6.69616 8.97041 7.54336 10.616L7.899 10.4329ZM3.991 6.33093L4.19065 5.98431C3.53553 5.60697 2.84121 5.30218 2.12001 5.07535L2 5.45693L1.87999 5.8385C2.54572 6.04788 3.18662 6.32922 3.79135 6.67754L3.991 6.33093ZM2 5.45693H1.6V10.9999H2H2.4V5.45693H2ZM2 10.9999H1.6C1.6 14.4785 4.00007 17.3956 7.23375 18.1884L7.329 17.7999L7.42425 17.4114C4.53993 16.7043 2.4 14.1014 2.4 10.9999H2ZM7.329 17.7999L7.71803 17.7069C7.50604 16.8203 7.39929 15.9118 7.4 15.0002L7 14.9999L6.6 14.9996C6.59924 15.9741 6.71335 16.9452 6.93997 17.893L7.329 17.7999ZM7 14.9999H7.4C7.4 13.4359 7.70848 11.9447 8.26881 10.5854L7.899 10.4329L7.52919 10.2805C6.92952 11.7352 6.6 13.3299 6.6 14.9999H7ZM9.454 17.9859L9.47994 18.3851C11.3556 18.2632 13.1147 17.4321 14.3999 16.0604L14.108 15.7869L13.8161 15.5134C12.6698 16.7368 11.101 17.478 9.42806 17.5868L9.454 17.9859ZM14.108 15.7869L14.3999 16.0604C15.6851 14.6888 16.4002 12.8795 16.4 10.9999L16 10.9999L15.6 11C15.6002 12.6764 14.9624 14.2901 13.8161 15.5134L14.108 15.7869ZM16 10.9999H16.4V5.45693H16H15.6V10.9999H16ZM16 5.45693L15.88 5.07535C13.7682 5.73947 11.9235 7.06011 10.6141 8.84511L10.9367 9.08169L11.2592 9.31828C12.4678 7.67058 14.1707 6.45154 16.12 5.8385L16 5.45693ZM10.9367 9.08169L10.6141 8.84511C9.3048 10.6301 8.5992 12.7863 8.6 15.0001L9 14.9999L9.4 14.9998C9.39926 12.9563 10.0506 10.966 11.2592 9.31828L10.9367 9.08169ZM9 14.9999H8.6C8.6 16.0831 8.76637 17.1253 9.07217 18.1051L9.454 17.9859L9.83584 17.8668C9.55363 16.9626 9.4 16.0007 9.4 14.9999H9Z" fill="#7C9085" mask="url(#path-1-inside-1_1_1354)"/>
    </symbol>

    <symbol id="tree" fill="none" viewBox="0 0 14 16">
    <path d="M6.99413 15V5.9M8.99519 11.5H9.66221C10.4892 11.5007 11.287 11.1789 11.9007 10.5971C12.5143 10.0153 12.9001 9.21492 12.9831 8.3514C13.0662 7.48788 12.8405 6.62278 12.35 5.92403C11.8595 5.22528 11.139 4.74271 10.3286 4.57C10.3286 2.6366 8.99519 1 6.99413 1C4.99307 1 3.6597 2.6366 3.6597 4.57C2.85176 4.74563 2.13449 5.22921 1.6464 5.92734C1.15831 6.62547 0.934027 7.48864 1.01687 8.35015C1.0997 9.21167 1.48379 10.0104 2.09494 10.5921C2.70609 11.1739 3.50096 11.4973 4.32605 11.5H4.99307M6.99413 10.1L8.66168 8.35M6.99413 8.7L5.32658 6.95M5.66009 15H8.32817" stroke="#F2F2F2" stroke-width="1.2" stroke-linecap="round" stroke-linejoin="round"/>
    </symbol>

    <symbol id="whatsap" viewBox="0 0 20 20">
    <path d="M17.0732 2.91667C15.1916 1.04167 12.6829 0 10.0348 0C4.52961 0 0.0696853 4.44444 0.0696853 9.93056C0.0696853 11.6667 0.557491 13.4028 1.39373 14.8611L0 20L5.29617 18.6111C6.75958 19.375 8.36237 19.7917 10.0348 19.7917C15.5401 19.7917 20 15.3472 20 9.86111C19.9303 7.29167 18.9547 4.79167 17.0732 2.91667ZM14.8432 13.4722C14.6341 14.0278 13.6585 14.5833 13.1707 14.6528C12.7526 14.7222 12.1951 14.7222 11.6376 14.5833C11.2892 14.4444 10.8014 14.3056 10.2439 14.0278C7.73519 12.9861 6.13241 10.4861 5.99303 10.2778C5.85366 10.1389 4.94774 8.95833 4.94774 7.70833C4.94774 6.45833 5.57491 5.90278 5.78397 5.625C5.99303 5.34722 6.27178 5.34722 6.48084 5.34722C6.62021 5.34722 6.82927 5.34722 6.96864 5.34722C7.10801 5.34722 7.31707 5.27778 7.52613 5.76389C7.73519 6.25 8.22299 7.5 8.29268 7.56944C8.36237 7.70833 8.36237 7.84722 8.29268 7.98611C8.22299 8.125 8.15331 8.26389 8.01393 8.40278C7.87456 8.54167 7.73519 8.75 7.6655 8.81944C7.52613 8.95833 7.38676 9.09722 7.52613 9.30555C7.6655 9.58333 8.15331 10.3472 8.91986 11.0417C9.89547 11.875 10.662 12.1528 10.9408 12.2917C11.2195 12.4306 11.3589 12.3611 11.4983 12.2222C11.6376 12.0833 12.1254 11.5278 12.2648 11.25C12.4042 10.9722 12.6132 11.0417 12.8223 11.1111C13.0314 11.1806 14.2857 11.8056 14.4948 11.9444C14.7735 12.0833 14.9129 12.1528 14.9826 12.2222C15.0523 12.4306 15.0523 12.9167 14.8432 13.4722Z"/>
    </symbol>

    <symbol id="letter" viewBox="0 0 22 18">
    <path d="M18.875 0.75H3.125C2.42904 0.750744 1.76179 1.02755 1.26967 1.51967C0.777545 2.01179 0.500744 2.67904 0.5 3.375V14.625C0.500744 15.321 0.777545 15.9882 1.26967 16.4803C1.76179 16.9725 2.42904 17.2493 3.125 17.25H18.875C19.571 17.2493 20.2382 16.9725 20.7303 16.4803C21.2225 15.9882 21.4993 15.321 21.5 14.625V3.375C21.4993 2.67904 21.2225 2.01179 20.7303 1.51967C20.2382 1.02755 19.571 0.750744 18.875 0.75ZM18.2103 5.09203L11.4603 10.342C11.3287 10.4444 11.1667 10.4999 11 10.4999C10.8333 10.4999 10.6713 10.4444 10.5397 10.342L3.78969 5.09203C3.71038 5.03214 3.64377 4.95709 3.59372 4.87123C3.54367 4.78537 3.51118 4.69042 3.49815 4.5919C3.48511 4.49338 3.49179 4.39325 3.51778 4.29733C3.54378 4.20142 3.58858 4.11162 3.64958 4.03316C3.71058 3.95471 3.78656 3.88916 3.87312 3.84032C3.95967 3.79149 4.05506 3.76034 4.15376 3.74869C4.25245 3.73704 4.35248 3.74513 4.44802 3.77247C4.54357 3.79981 4.63272 3.84587 4.71031 3.90797L11 8.79984L17.2897 3.90797C17.447 3.7892 17.6447 3.73711 17.84 3.76296C18.0354 3.78881 18.2128 3.89053 18.3338 4.04612C18.4547 4.20171 18.5096 4.39866 18.4865 4.59439C18.4634 4.79011 18.3642 4.96888 18.2103 5.09203Z"/>
    </symbol>

    <symbol id="vk" viewBox="0 0 24 16">
    <path d="M14.25 15.3867H9.75C7.36305 15.3867 5.07387 14.4385 3.38604 12.7507C1.69821 11.0629 0.75 8.77367 0.75 6.38672V0.761719H5.25V6.38672C5.25 7.58019 5.72411 8.72479 6.56802 9.5687C7.41193 10.4126 8.55653 10.8867 9.75 10.8867V0.761719H14.25V5.82422H14.2837C15.5168 5.67037 16.6511 5.07143 17.4736 4.14C18.2961 3.20857 18.75 2.0088 18.75 0.766219H23.25L22.8653 2.69109C22.6348 3.84319 22.1443 4.92744 21.4311 5.86114C20.7179 6.79483 19.8009 7.55331 18.75 8.07872C19.7719 8.41917 20.6835 9.0281 21.3892 9.84176C22.095 10.6554 22.5691 11.6439 22.7617 12.7036L23.25 15.3912H18.75C18.75 14.1486 18.2961 12.9489 17.4736 12.0174C16.6511 11.086 15.5168 10.4871 14.2837 10.3332V15.3957L14.25 15.3867Z"/>
    </symbol>

    <symbol id="telegram" viewBox="0 0 22 18">
    <path d="M21.286 0.63765L18.032 17.2506C18.032 17.2506 17.5767 18.4025 16.326 17.8501L8.8182 12.0204L8.78338 12.0032C9.79752 11.081 17.6616 3.92047 18.0053 3.59589C18.5373 3.09321 18.207 2.79395 17.5892 3.17367L5.97308 10.6443L1.49159 9.11728C1.49159 9.11728 0.786337 8.86323 0.71849 8.31082C0.64975 7.7575 1.5148 7.45824 1.5148 7.45824L19.7845 0.200062C19.7845 0.200062 21.286 -0.468074 21.286 0.63765Z"/>
    </symbol>

    <symbol id="telephone" viewBox="0 0 23 24">
    <path d="M2.66667 0.833252H8L10.6667 7.49992L7.33333 9.49992C8.76128 12.3953 11.1046 14.7386 14 16.1666L16 12.8333L22.6667 15.4999V20.8333C22.6667 21.5405 22.3857 22.2188 21.8856 22.7189C21.3855 23.219 20.7072 23.4999 20 23.4999C14.799 23.1839 9.89354 20.9752 6.20911 17.2908C2.52467 13.6064 0.316066 8.7009 0 3.49992C0 2.79267 0.280951 2.1144 0.781048 1.6143C1.28115 1.1142 1.95942 0.833252 2.66667 0.833252Z"/>
    </symbol>

    <symbol id="menu" fill="none" viewBox="0 0 32 33">
    <path d="M5.33325 8.5H26.6666" stroke-width="2" stroke-linecap="round" stroke-linejoin="round"/>
    <path d="M5.33325 16.5H26.6666" stroke-width="2" stroke-linecap="round" stroke-linejoin="round"/>
    <path d="M5.33325 24.5H26.6666" stroke-width="2" stroke-linecap="round" stroke-linejoin="round"/>
    </symbol>

    <symbol id="cross" fill="none" viewBox="0 0 32 33">
    <path d="M24 8.5L8 24.5" stroke="white" stroke-width="2" stroke-linecap="round" stroke-linejoin="round"/>
    <path d="M8 8.5L24 24.5" stroke="white" stroke-width="2" stroke-linecap="round" stroke-linejoin="round"/>
    </symbol>



</svg>