<svg width="23" height="16" viewBox="0 0 23 16" fill="none" xmlns="http://www.w3.org/2000/svg">
<path d="M13.5739 15.3867H9.07391C6.68696 15.3867 4.39778 14.4385 2.70995 12.7507C1.02213 11.0629 0.0739136 8.77367 0.0739136 6.38672V0.761719H4.57391V6.38672C4.57391 7.58019 5.04802 8.72479 5.89193 9.5687C6.73585 10.4126 7.88044 10.8867 9.07391 10.8867V0.761719H13.5739V5.82422H13.6077C14.8407 5.67037 15.975 5.07143 16.7975 4.14C17.62 3.20857 18.0739 2.0088 18.0739 0.766219H22.5739L22.1892 2.69109C21.9587 3.84319 21.4682 4.92744 20.755 5.86114C20.0418 6.79483 19.1248 7.55331 18.0739 8.07872C19.0958 8.41917 20.0074 9.0281 20.7132 9.84176C21.4189 10.6554 21.893 11.6439 22.0857 12.7036L22.5739 15.3912H18.0739C18.0739 14.1486 17.62 12.9489 16.7975 12.0174C15.975 11.086 14.8407 10.4871 13.6077 10.3332V15.3957L13.5739 15.3867Z" fill="white"/>
</svg>
