<svg width="24" height="16" viewBox="0 0 24 16" fill="none" xmlns="http://www.w3.org/2000/svg">
<path d="M14.25 15.3867H9.75C7.36305 15.3867 5.07387 14.4385 3.38604 12.7507C1.69821 11.0629 0.75 8.77367 0.75 6.38672V0.761719H5.25V6.38672C5.25 7.58019 5.72411 8.72479 6.56802 9.5687C7.41193 10.4126 8.55653 10.8867 9.75 10.8867V0.761719H14.25V5.82422H14.2837C15.5168 5.67037 16.6511 5.07143 17.4736 4.14C18.2961 3.20857 18.75 2.0088 18.75 0.766219H23.25L22.8653 2.69109C22.6348 3.84319 22.1443 4.92744 21.4311 5.86114C20.7179 6.79483 19.8009 7.55331 18.75 8.07872C19.7719 8.41917 20.6835 9.0281 21.3892 9.84176C22.095 10.6554 22.5691 11.6439 22.7617 12.7036L23.25 15.3912H18.75C18.75 14.1486 18.2961 12.9489 17.4736 12.0174C16.6511 11.086 15.5168 10.4871 14.2837 10.3332V15.3957L14.25 15.3867Z" fill="#303A30"/>
</svg>
