<svg width="21" height="20" viewBox="0 0 21 20" fill="none" xmlns="http://www.w3.org/2000/svg">
<path d="M17.3971 2.91667C15.5155 1.04167 13.0068 0 10.3588 0C4.85353 0 0.393599 4.44444 0.393599 9.93056C0.393599 11.6667 0.881405 13.4028 1.71764 14.8611L0.323914 20L5.62008 18.6111C7.0835 19.375 8.68628 19.7917 10.3588 19.7917C15.864 19.7917 20.3239 15.3472 20.3239 9.86111C20.2542 7.29167 19.2786 4.79167 17.3971 2.91667ZM15.1671 13.4722C14.9581 14.0278 13.9824 14.5833 13.4946 14.6528C13.0765 14.7222 12.519 14.7222 11.9615 14.5833C11.6131 14.4444 11.1253 14.3056 10.5678 14.0278C8.05911 12.9861 6.45632 10.4861 6.31695 10.2778C6.17757 10.1389 5.27165 8.95833 5.27165 7.70833C5.27165 6.45833 5.89883 5.90278 6.10788 5.625C6.31694 5.34722 6.59569 5.34722 6.80475 5.34722C6.94412 5.34722 7.15318 5.34722 7.29255 5.34722C7.43192 5.34722 7.64099 5.27778 7.85005 5.76389C8.0591 6.25 8.54691 7.5 8.61659 7.56944C8.68628 7.70833 8.68628 7.84722 8.61659 7.98611C8.54691 8.125 8.47722 8.26389 8.33785 8.40278C8.19847 8.54167 8.0591 8.75 7.98942 8.81944C7.85004 8.95833 7.71067 9.09722 7.85005 9.30555C7.98942 9.58333 8.47722 10.3472 9.24377 11.0417C10.2194 11.875 10.9859 12.1528 11.2647 12.2917C11.5434 12.4306 11.6828 12.3611 11.8222 12.2222C11.9615 12.0833 12.4494 11.5278 12.5887 11.25C12.7281 10.9722 12.9372 11.0417 13.1462 11.1111C13.3553 11.1806 14.6096 11.8056 14.8187 11.9444C15.0974 12.0833 15.2368 12.1528 15.3065 12.2222C15.3762 12.4306 15.3762 12.9167 15.1671 13.4722Z" fill="white"/>
</svg>
