<svg width="14" height="16" viewBox="0 0 14 16" fill="none" xmlns="http://www.w3.org/2000/svg">
<path d="M6.99413 15V5.9M8.99519 11.5H9.66221C10.4892 11.5007 11.287 11.1789 11.9007 10.5971C12.5143 10.0153 12.9001 9.21492 12.9831 8.3514C13.0662 7.48788 12.8405 6.62278 12.35 5.92403C11.8595 5.22528 11.139 4.74271 10.3286 4.57C10.3286 2.6366 8.99519 1 6.99413 1C4.99307 1 3.6597 2.6366 3.6597 4.57C2.85176 4.74563 2.13449 5.22921 1.6464 5.92734C1.15831 6.62547 0.934027 7.48864 1.01687 8.35015C1.0997 9.21167 1.48379 10.0104 2.09494 10.5921C2.70609 11.1739 3.50096 11.4973 4.32605 11.5H4.99307M6.99413 10.1L8.66168 8.35M6.99413 8.7L5.32658 6.95M5.66009 15H8.32817" stroke="#F2F2F2" stroke-width="1.2" stroke-linecap="round" stroke-linejoin="round"/>
</svg>
