<svg width="18" height="20" viewBox="0 0 18 20" fill="none" xmlns="http://www.w3.org/2000/svg">
<mask id="path-1-inside-1_1_1354" fill="white">
<path d="M9 0.0759277L9.455 0.308928C11.2158 1.2102 12.7276 2.53106 13.857 4.15493C14.7986 3.70868 15.7943 3.38698 16.819 3.19793L18 2.97993V10.9999C18 13.3869 17.0518 15.6761 15.364 17.3639C13.6761 19.0517 11.3869 19.9999 9 19.9999C6.61305 19.9999 4.32387 19.0517 2.63604 17.3639C0.948211 15.6761 3.55683e-08 13.3869 0 10.9999V2.97993L1.18 3.19793C2.221 3.38793 3.215 3.71393 4.143 4.15493C5.27243 2.53106 6.78425 1.2102 8.545 0.308928L9 0.0759277ZM5.878 5.16593C7.10812 6.02853 8.16684 7.11268 9 8.36293C9.83296 7.11196 10.8917 6.02712 12.122 5.16393C11.2916 4.01267 10.2278 3.0494 9 2.33693C7.77214 3.04969 6.70834 4.01331 5.878 5.16493M7.899 10.4329C7.01668 8.71911 5.6601 7.29519 3.991 6.33093C3.36107 5.96809 2.69346 5.67503 2 5.45693V10.9999C2 14.2899 4.27 17.0499 7.329 17.7999C7.1097 16.8828 6.99927 15.9429 7 14.9999C7 13.3829 7.319 11.8399 7.899 10.4329ZM9.454 17.9859C11.2283 17.8706 12.8922 17.0844 14.108 15.7869C15.3237 14.4895 16.0002 12.778 16 10.9999V5.45693C13.9695 6.0955 12.1957 7.36535 10.9367 9.08169C9.6777 10.798 8.99923 12.8713 9 14.9999C9 16.0419 9.16 17.0439 9.454 17.9859Z"/>
</mask>
<path d="M9 0.0759277L9.455 0.308928C11.2158 1.2102 12.7276 2.53106 13.857 4.15493C14.7986 3.70868 15.7943 3.38698 16.819 3.19793L18 2.97993V10.9999C18 13.3869 17.0518 15.6761 15.364 17.3639C13.6761 19.0517 11.3869 19.9999 9 19.9999C6.61305 19.9999 4.32387 19.0517 2.63604 17.3639C0.948211 15.6761 3.55683e-08 13.3869 0 10.9999V2.97993L1.18 3.19793C2.221 3.38793 3.215 3.71393 4.143 4.15493C5.27243 2.53106 6.78425 1.2102 8.545 0.308928L9 0.0759277ZM5.878 5.16593C7.10812 6.02853 8.16684 7.11268 9 8.36293C9.83296 7.11196 10.8917 6.02712 12.122 5.16393C11.2916 4.01267 10.2278 3.0494 9 2.33693C7.77214 3.04969 6.70834 4.01331 5.878 5.16493M7.899 10.4329C7.01668 8.71911 5.6601 7.29519 3.991 6.33093C3.36107 5.96809 2.69346 5.67503 2 5.45693V10.9999C2 14.2899 4.27 17.0499 7.329 17.7999C7.1097 16.8828 6.99927 15.9429 7 14.9999C7 13.3829 7.319 11.8399 7.899 10.4329ZM9.454 17.9859C11.2283 17.8706 12.8922 17.0844 14.108 15.7869C15.3237 14.4895 16.0002 12.778 16 10.9999V5.45693C13.9695 6.0955 12.1957 7.36535 10.9367 9.08169C9.6777 10.798 8.99923 12.8713 9 14.9999C9 16.0419 9.16 17.0439 9.454 17.9859Z" fill="white"/>
<path d="M9 0.0759277L9.18232 -0.280105L9 -0.373469L8.81768 -0.280105L9 0.0759277ZM9.455 0.308928L9.27268 0.664961L9.27274 0.664992L9.455 0.308928ZM13.857 4.15493L13.5286 4.38332L13.7221 4.66151L14.0283 4.51639L13.857 4.15493ZM16.819 3.19793L16.8916 3.59129L16.8916 3.59128L16.819 3.19793ZM18 2.97993H18.4V2.49933L17.9274 2.58657L18 2.97993ZM18 10.9999H18.4H18ZM9 19.9999V19.5999V19.9999ZM0 10.9999H-0.4H0ZM0 2.97993L0.0726686 2.58658L-0.4 2.49926V2.97993H0ZM1.18 3.19793L1.10733 3.59127L1.10818 3.59143L1.18 3.19793ZM4.143 4.15493L3.97131 4.51621L4.27769 4.66181L4.47138 4.38332L4.143 4.15493ZM8.545 0.308928L8.72726 0.664992L8.72732 0.664961L8.545 0.308928ZM9 8.36293L8.66714 8.58474L9.00013 9.08444L9.33294 8.58462L9 8.36293ZM12.122 5.16393L12.3517 5.49137L12.6835 5.25861L12.4464 4.92992L12.122 5.16393ZM9 2.33693L9.20076 1.99096L8.99997 1.87444L8.79919 1.99099L9 2.33693ZM7.899 10.4329L8.26881 10.5854L8.33932 10.4143L8.25464 10.2498L7.899 10.4329ZM3.991 6.33093L4.19109 5.98457L4.19065 5.98431L3.991 6.33093ZM2 5.45693L2.12001 5.07535L1.6 4.91181V5.45693H2ZM7.329 17.7999L7.23375 18.1884L7.8705 18.3445L7.71803 17.7069L7.329 17.7999ZM7 14.9999L7.4 15.0002V14.9999H7ZM9.454 17.9859L9.07217 18.1051L9.16592 18.4055L9.47994 18.3851L9.454 17.9859ZM16 10.9999H15.6V11L16 10.9999ZM16 5.45693H16.4V4.91182L15.88 5.07535L16 5.45693ZM9 14.9999H9.4V14.9998L9 14.9999ZM9 0.0759277L8.81768 0.431961L9.27268 0.664961L9.455 0.308928L9.63732 -0.047105L9.18232 -0.280105L9 0.0759277ZM9.455 0.308928L9.27274 0.664992C10.975 1.53635 12.4367 2.81336 13.5286 4.38332L13.857 4.15493L14.1854 3.92653C13.0185 2.24876 11.4565 0.884054 9.63726 -0.0471369L9.455 0.308928ZM13.857 4.15493L14.0283 4.51639C14.9385 4.08502 15.901 3.77404 16.8916 3.59129L16.819 3.19793L16.7464 2.80457C15.6876 2.99992 14.6587 3.33235 13.6857 3.79347L13.857 4.15493ZM16.819 3.19793L16.8916 3.59128L18.0726 3.37328L18 2.97993L17.9274 2.58657L16.7464 2.80457L16.819 3.19793ZM18 2.97993H17.6V10.9999H18H18.4V2.97993H18ZM18 10.9999H17.6C17.6 13.2808 16.6939 15.4682 15.0811 17.081L15.364 17.3639L15.6468 17.6467C17.4096 15.8839 18.4 13.493 18.4 10.9999H18ZM15.364 17.3639L15.0811 17.081C13.4683 18.6939 11.2809 19.5999 9 19.5999V19.9999V20.3999C11.493 20.3999 13.884 19.4096 15.6468 17.6467L15.364 17.3639ZM9 19.9999V19.5999C6.71914 19.5999 4.53169 18.6939 2.91888 17.081L2.63604 17.3639L2.3532 17.6467C4.11604 19.4096 6.50697 20.3999 9 20.3999V19.9999ZM2.63604 17.3639L2.91888 17.081C1.30607 15.4682 0.4 13.2808 0.4 10.9999H0H-0.4C-0.4 13.493 0.590354 15.8839 2.3532 17.6467L2.63604 17.3639ZM0 10.9999H0.4V2.97993H0H-0.4V10.9999H0ZM0 2.97993L-0.0726686 3.37327L1.10733 3.59127L1.18 3.19793L1.25267 2.80458L0.0726686 2.58658L0 2.97993ZM1.18 3.19793L1.10818 3.59143C2.11385 3.77498 3.07433 4.08995 3.97131 4.51621L4.143 4.15493L4.31469 3.79365C3.35567 3.33791 2.32815 3.00088 1.25182 2.80443L1.18 3.19793ZM4.143 4.15493L4.47138 4.38332C5.56332 2.81336 7.02495 1.53635 8.72726 0.664992L8.545 0.308928L8.36274 -0.0471369C6.54354 0.884054 4.98154 2.24876 3.81462 3.92653L4.143 4.15493ZM8.545 0.308928L8.72732 0.664961L9.18232 0.431961L9 0.0759277L8.81768 -0.280105L8.36268 -0.047105L8.545 0.308928ZM5.878 5.16593L5.64834 5.49343C6.8378 6.32752 7.86152 7.37583 8.66714 8.58474L9 8.36293L9.33286 8.14111C8.47216 6.84953 7.37844 5.72954 6.10766 4.83842L5.878 5.16593ZM9 8.36293L9.33294 8.58462C10.1384 7.37501 11.1621 6.32603 12.3517 5.49137L12.122 5.16393L11.8923 4.83648C10.6213 5.72821 9.52756 6.84891 8.66706 8.14123L9 8.36293ZM12.122 5.16393L12.4464 4.92992C11.5831 3.73307 10.4772 2.73165 9.20076 1.99096L9 2.33693L8.79924 2.6829C9.97838 3.36715 11 4.29227 11.7976 5.39794L12.122 5.16393ZM9 2.33693L8.79919 1.99099C7.52269 2.73198 6.41676 3.73376 5.55354 4.93099L5.878 5.16493L6.20246 5.39887C6.99991 4.29286 8.02158 3.3674 9.20081 2.68287L9 2.33693ZM7.899 10.4329L8.25464 10.2498C7.33719 8.4678 5.92662 6.98721 4.19109 5.98457L3.991 6.33093L3.79091 6.67728C5.39357 7.60316 6.69616 8.97041 7.54336 10.616L7.899 10.4329ZM3.991 6.33093L4.19065 5.98431C3.53553 5.60697 2.84121 5.30218 2.12001 5.07535L2 5.45693L1.87999 5.8385C2.54572 6.04788 3.18662 6.32922 3.79135 6.67754L3.991 6.33093ZM2 5.45693H1.6V10.9999H2H2.4V5.45693H2ZM2 10.9999H1.6C1.6 14.4785 4.00007 17.3956 7.23375 18.1884L7.329 17.7999L7.42425 17.4114C4.53993 16.7043 2.4 14.1014 2.4 10.9999H2ZM7.329 17.7999L7.71803 17.7069C7.50604 16.8203 7.39929 15.9118 7.4 15.0002L7 14.9999L6.6 14.9996C6.59924 15.9741 6.71335 16.9452 6.93997 17.893L7.329 17.7999ZM7 14.9999H7.4C7.4 13.4359 7.70848 11.9447 8.26881 10.5854L7.899 10.4329L7.52919 10.2805C6.92952 11.7352 6.6 13.3299 6.6 14.9999H7ZM9.454 17.9859L9.47994 18.3851C11.3556 18.2632 13.1147 17.4321 14.3999 16.0604L14.108 15.7869L13.8161 15.5134C12.6698 16.7368 11.101 17.478 9.42806 17.5868L9.454 17.9859ZM14.108 15.7869L14.3999 16.0604C15.6851 14.6888 16.4002 12.8795 16.4 10.9999L16 10.9999L15.6 11C15.6002 12.6764 14.9624 14.2901 13.8161 15.5134L14.108 15.7869ZM16 10.9999H16.4V5.45693H16H15.6V10.9999H16ZM16 5.45693L15.88 5.07535C13.7682 5.73947 11.9235 7.06011 10.6141 8.84511L10.9367 9.08169L11.2592 9.31828C12.4678 7.67058 14.1707 6.45154 16.12 5.8385L16 5.45693ZM10.9367 9.08169L10.6141 8.84511C9.3048 10.6301 8.5992 12.7863 8.6 15.0001L9 14.9999L9.4 14.9998C9.39926 12.9563 10.0506 10.966 11.2592 9.31828L10.9367 9.08169ZM9 14.9999H8.6C8.6 16.0831 8.76637 17.1253 9.07217 18.1051L9.454 17.9859L9.83584 17.8668C9.55363 16.9626 9.4 16.0007 9.4 14.9999H9Z" fill="#7C9085" mask="url(#path-1-inside-1_1_1354)"/>
</svg>
